<?xml version="1.0" encoding="utf-8"?>
<!-- Generator: Adobe Illustrator 23.0.3, SVG Export Plug-In . SVG Version: 6.00 Build 0)  -->
<svg version="1.1" id="Layer_2" xmlns="http://www.w3.org/2000/svg" xmlns:xlink="http://www.w3.org/1999/xlink" x="0px" y="0px"
	 viewBox="0 0 647.1 428.2" style="enable-background:new 0 0 647.1 428.2;" xml:space="preserve">
<style type="text/css">
	.st0{fill:#0088CE;}
	.st1{fill:#FFFFFF;}
	.st2{fill:#DC1F3D;}
	.st3{fill:#ED1C24;}
	.st4{fill:#2B3990;}
	.st5{fill:#0B9446;}
	.st6{fill:#62165C;}
	.st7{fill:none;stroke:#ED1C24;stroke-width:2.0898;stroke-miterlimit:10;}
	.st8{fill:#FFFFFF;stroke:#ED1C24;stroke-width:1.9447;stroke-miterlimit:10;}
	.st9{fill:#068940;}
	.st10{fill:url(#SVGID_1_);}
	.st11{fill:url(#SVGID_2_);}
</style>
<g>
	<g>
		<g>
			<path class="st0" d="M104.3,41.1c-0.3,0-0.7-0.1-1-0.2c-0.4-0.2-1-0.7-1.2-1.6l0-0.3l-0.4-8.8c-0.2-1-0.5-1.4-1-1.7l-5.5-3
				c-1.9,0.7-5-0.5-5.4-0.6l-10-4c-0.7-0.2-4.9-1.7-6.3-4.7c-0.6-1.2-0.6-2.6-0.1-3.8c0.6-1.4,1.6-2.4,2.9-3c3.2-1.2,7.3,0.6,8,1
				l10.7,4.1l0,0c0,0,3.4,1.3,4.2,2.7h0l0.8,1.3c0.1,0.2,0.3,0.4,0.5,0.5l6.9,3.9c1.8,1,2.2,2.8,2.4,3.8c0,0.1,0,0.2,0,0.2l0.1,0.2
				l1.2,12.1l-4.1,1c-0.2,0.1-0.3,0.1-0.5,0.2C105.8,40.8,105,41.1,104.3,41.1z M95.1,22.6c0.5,0,1,0.1,1.4,0.4l5.6,3
				c1.7,0.9,2.2,2.4,2.5,3.8l0,0.3l0.4,7.9c0.1-0.1,0.2-0.1,0.3-0.1c0.2-0.1,0.5-0.2,0.7-0.3l0.2-0.1l1.7-0.4l-0.9-9.1
				c0-0.2-0.1-0.3-0.1-0.5c-0.2-0.7-0.3-1.4-0.9-1.7l-7.1-4c-0.6-0.4-1.1-0.9-1.5-1.5l-0.8-1.3c-0.5-0.4-2.2-1.3-2.7-1.5l-11-4.2
				c-1-0.5-3.9-1.6-5.7-0.9c-0.6,0.2-1,0.6-1.2,1.3c-0.2,0.5-0.2,1,0,1.4c0.7,1.6,3.6,2.8,4.6,3.2l0.1,0l10,4
				c1.1,0.4,2.9,0.7,3.3,0.6C94.4,22.6,94.7,22.6,95.1,22.6z M109.8,26.9L109.8,26.9C109.8,26.9,109.8,26.9,109.8,26.9z"/>
		</g>
		<g>
			<path class="st0" d="M161.3,139.8c-1.1,0-1.9-0.1-2.4-0.2c-3.1-0.9-5.9-8.1-11-23c-2.1-6.1-4.2-12.4-5.4-14
				c-2.1-2.9-9.1-5.8-19.1-7.9c-1.1-0.2-2.8-0.4-4.8-0.6c-6.5-0.7-15.5-1.6-19.3-5.6c-0.7-0.8-2.5-2.6-0.2-16.7
				c0.9-5.5,2.1-11.2,2.9-14.1c-1.9,0.9-4.9,3.2-5.9,6.2c-1.8,5-0.1,14.9,0.9,21.5c1,6.3,1.3,8.1-0.2,9c-0.5,0.3-1.3,0.5-2.4-0.1
				c-3.3-1.7-13.3-14-13.7-26.9l0-0.1l0-0.1c1.1-14.5,13.9-30.5,35.2-31.7c0,0,0,0,0,0c10.9,0,22.7,7.1,24.3,11.6
				c0.4,1.2-0.1,3.1-2.8,11.4c-1.7,5.2-4.8,14.5-4.8,17.3c5.6,1.5,16.4,5.7,21.6,9.9c6,4.9,8.4,20.9,10,31.5c0.5,3.1,1,6.6,1.3,7.5
				c0.6,0.5,3.3,1.5,5.2,2.1c4.7,1.6,9.1,3.1,9.9,5.9c0.3,1,0,2-0.9,2.8C177.1,138.3,166.4,139.8,161.3,139.8z M103.5,53.8
				c1.2,0,1.8,0.6,2.1,0.9c0.4,0.5,0.8,1.5,0.2,3c-1.5,3.7-5.7,25.8-3.8,28.5c2.9,3,11.4,3.9,17.1,4.5c2.1,0.2,3.9,0.4,5.2,0.7
				c7.8,1.6,17.8,4.6,21.2,9.2c1.4,1.9,3.2,6.9,5.9,14.9c2.4,6.9,6.7,19.7,8.7,20.8c2,0.6,14.5-1.1,17.1-2.9
				c-1.1-1.1-5.3-2.5-7.4-3.2c-3.7-1.3-5.9-2-6.8-3.3c-0.7-1-1.1-3.1-2-9.1c-1.4-9.4-3.8-25.3-8.7-29.3c-5-4.1-16.4-8.4-21.2-9.5
				l-0.6-0.1l-0.4-0.5c-1.7-2-0.4-7,4.2-21c1.2-3.6,2.7-8,2.8-9.2c-1.4-2.8-11.3-9.2-20.9-9.2c-21.6,1.2-31,18-31.8,28.4
				c0.3,9.2,6.4,18.2,9.8,22c-0.2-1.1-0.4-2.3-0.5-3.4c-1.2-7.4-2.8-17.4-0.8-23.2c1.7-4.8,6.9-8.4,9.9-8.9
				C103,53.8,103.2,53.8,103.5,53.8z M102.6,56.2L102.6,56.2C102.6,56.2,102.6,56.2,102.6,56.2z"/>
		</g>
		<path class="st1" d="M100.8,80c-2.1,0-4.2,0.2-6.3,0.5c0.9,6.4,2.1,12,1.4,12.4c-0.8,0.5-5.4-4-8.9-10.6
			c-17.3,5.8-29.9,22.2-29.9,41.4c0,24.1,19.6,43.6,43.6,43.6s43.6-19.6,43.6-43.6C144.4,99.6,124.9,80,100.8,80z M100.8,148.6
			c-13.7,0-24.9-11.2-24.9-24.9c0-13.7,11.2-24.9,24.9-24.9c13.7,0,24.9,11.2,24.9,24.9C125.7,137.4,114.5,148.6,100.8,148.6z"/>
		<g>
			<g>
				<path class="st0" d="M100.8,169.1c-25,0-45.4-20.4-45.4-45.4c0-19.6,12.5-36.9,31.1-43.1l1.4-0.5l0.7,1.3c1.9,3.6,4,6.3,5.6,8
					c-0.2-1.1-0.4-2.3-0.5-3.4c-0.3-1.6-0.5-3.4-0.8-5.2L92.6,79l1.7-0.2c2.2-0.3,4.4-0.5,6.5-0.5c25,0,45.4,20.4,45.4,45.4
					C146.2,148.7,125.8,169.1,100.8,169.1z M86.2,84.4c-16.4,6.1-27.3,21.7-27.3,39.3c0,23.1,18.8,41.9,41.9,41.9
					s41.9-18.8,41.9-41.9s-18.8-41.9-41.9-41.9c-1.4,0-2.8,0.1-4.3,0.2c0.2,1.2,0.4,2.3,0.5,3.4c1,6.4,1.3,8.1-0.2,9
					c-0.5,0.3-1.1,0.4-1.7,0.2C93.2,94.1,89.3,89.6,86.2,84.4z"/>
			</g>
			<g>
				<path class="st0" d="M100.8,150.3c-14.7,0-26.6-12-26.6-26.6c0-14.7,12-26.6,26.6-26.6c14.7,0,26.6,12,26.6,26.6
					C127.4,138.4,115.5,150.3,100.8,150.3z M100.8,100.5c-12.8,0-23.1,10.4-23.1,23.1s10.4,23.1,23.1,23.1s23.1-10.4,23.1-23.1
					S113.6,100.5,100.8,100.5z"/>
			</g>
		</g>
		<g>
			<path class="st0" d="M140.6,40.5c-11.2,0-20.2-9.1-20.2-20.2c0-11.2,9.1-20.2,20.2-20.2c11.2,0,20.2,9.1,20.2,20.2
				C160.8,31.4,151.7,40.5,140.6,40.5z M140.6,3c-9.5,0-17.2,7.7-17.2,17.2s7.7,17.2,17.2,17.2c9.5,0,17.2-7.7,17.2-17.2
				S150.1,3,140.6,3z"/>
		</g>
	</g>
	<g>
		<g>
			<path class="st2" d="M181.9,353.3C182.3,352.8,182.3,352.7,181.9,353.3L181.9,353.3z"/>
			<path class="st2" d="M181.7,353.5c0.1-0.1,0.1-0.1,0.1-0.2C181.8,353.3,181.8,353.4,181.7,353.5
				C181.6,353.7,181.6,353.7,181.7,353.5z"/>
			<path class="st3" d="M253.7,288.5c-9.7-15.3-31.5-24-38.7-15.5c-5,6-47.8,66.2-49.7,69.6c-1.9,3.3-3.3,7.4-0.7,9.1
				c2.6,1.7,9.5,4.6,12.4,4.7c1.8,0,3.7-1.9,4.6-2.9c1.2-1.9,15.8-23.3,20-28.3c4.7-5.5,3.6,10.8,3.3,14.8c-0.5,6-3.1,18.8-0.3,27.9
				c2,6.7,19.9,17.4,21.6,16.3c1.6-1.1-5.6-16.4-6.5-27.8c-0.7-8,4.7-23.8,0.9-34.5C239,325.9,263.4,303.8,253.7,288.5z M212.7,300
				c2.9-4.2,6.7-10.7,11-15.3c7.7-0.3,12.2,3.2,11.2,8.7C233.6,300.2,216.7,303.6,212.7,300z"/>
		</g>
		<g>
			<path class="st4" d="M230.2,387.8c-0.6,0-1.3-0.2-1.9-0.4c-5.2-1.9-19.2-10.8-21.2-17.4c-2.3-7.7-1.1-17.9-0.2-24.6
				c0.2-1.7,0.4-3.2,0.5-4.4c0.6-7.7,0.3-12.8-0.3-14.4c-0.1,0.1-0.2,0.2-0.4,0.4c-3.9,4.6-16.5,22.9-19.7,27.7
				c-0.1,0.1-0.2,0.3-0.3,0.6l0,0c-0.1,0.1-0.2,0.2-0.4,0.5c-0.1,0.1-0.2,0.3-0.4,0.4c-1.3,1.4-3.5,3.3-5.7,3.2
				c-3.3-0.1-10.6-3.1-13.4-5c-1.7-1.1-3.9-4,0.2-11.3v0c1.9-3.3,45.7-65.2,50.8-71.2c2.4-2.9,6.3-4.2,11.2-3.9
				c10.8,0.7,24,9.3,30.7,19.9c3.9,6.1,3.2,13.8-1.9,21.1c-6.2,9-19.2,16.9-31,15.7c1.6,6.8,0.5,14.8-0.6,22
				c-0.6,4.3-1.2,8.4-1,11.2c0.5,6.1,2.9,13.6,4.7,19.1c2.2,6.9,3.1,9.5,1.3,10.6C231,387.7,230.6,387.8,230.2,387.8z M207.3,323.4
				c0.3,0,0.6,0.1,0.9,0.2c1,0.4,3.6,1.5,2.2,17.7c-0.1,1.3-0.3,2.8-0.5,4.6c-0.8,6.5-2,16.2,0.1,23.4c1.6,5.3,14.9,13.8,19.2,15.4
				c-0.3-1.5-1.2-4.3-2-6.8c-1.8-5.6-4.3-13.3-4.8-19.7c-0.3-3.2,0.3-7.2,1-11.9c1.1-7.7,2.4-16.4,0-22.9l-0.9-2.5l2.6,0.6
				c11.2,2.4,24.2-5.3,30.3-14.1c2.6-3.7,6.2-11,1.9-17.8c-7.2-11.2-20-17.9-28.4-18.5c-2.7-0.2-6.4,0.2-8.7,2.8
				c-5.1,6-48.6,67.5-50.5,70.8v0c-0.8,1.4-3.2,6-1.2,7.3c2.7,1.8,9.4,4.4,11.9,4.5c0,0,0,0,0,0c1.1,0,2.8-1.6,3.6-2.5c0,0,0,0,0,0
				c0.9-1.5,3.1-4.7,8.3-12.2c4.2-6,9.6-13.7,12.1-16.6C205.5,323.7,206.5,323.4,207.3,323.4z"/>
		</g>
		<g>
			<path class="st4" d="M222.5,303.3c-2.8,0-5.3-0.5-6.8-1.8l-1-0.9l0.8-1.1c0.7-1.1,1.5-2.3,2.3-3.5c2.6-4,5.6-8.6,9-12.2l0.4-0.4
				l0.6,0c5-0.2,9,1.1,11.2,3.6c1.6,1.9,2.2,4.3,1.7,7c-0.6,3.2-3.7,5.9-8.9,7.7C229,302.7,225.6,303.3,222.5,303.3z M218.9,299.8
				c2.4,0.8,7.3,0.7,12.1-1c4-1.4,6.5-3.4,6.9-5.4c0.3-1.8,0-3.3-1.1-4.5c-1.5-1.8-4.4-2.7-8.2-2.6c-3,3.3-5.8,7.6-8.2,11.3
				C219.8,298.4,219.3,299.1,218.9,299.8z"/>
		</g>
	</g>
	<g>
		<path class="st5" d="M273,304.7c-4.3,8-34.3,65.2-38.5,73.7c-4.2,8.5,17.2,13,25.7,12.8c8.5-0.2,46.5-0.7,57.5-30.5
			C329.5,328.8,277.4,296.7,273,304.7z M293.8,356.9c-5.8,15.7-35.6,18-33.4,13.6c2.2-4.5,17.8-34.7,20.1-38.9
			C282.7,327.3,300,340.1,293.8,356.9z"/>
		<g>
			<path class="st4" d="M263.3,392.9c-7.4,0-22.4-3-26.2-9c-1.2-1.9-1.3-4-0.3-6l0,0c4.2-8.6,34.5-66.3,38.5-73.7
				c1.5-2.8,6-2.7,12.5,0.3c7.2,3.2,18.5,10.9,26.9,21.7c6.5,8.4,13.1,21.3,8,35.2c-5.1,13.9-19.5,30.7-58.7,31.5l-0.2,0
				C263.6,392.9,263.4,392.9,263.3,392.9z M239.4,379.2c-0.5,1.1-0.5,2.1,0.1,3.1c3.1,4.9,17.6,7.7,24.2,7.6l0.2,0
				c37.5-0.7,51.1-16.5,55.9-29.5c8.4-22.8-18-46.2-33.3-53.2c-5.8-2.6-8.3-2.2-8.7-1.6C273.9,313.1,243.6,370.7,239.4,379.2
				L239.4,379.2z"/>
		</g>
		<g>
			<path class="st4" d="M268.6,374.2c-2.4,0-4.9-0.4-5.9-1.7c-0.5-0.7-0.6-1.6-0.2-2.4c2.1-4.3,17.7-34.6,20.1-39
				c0.4-0.7,1.8-2.7,5.7-0.9c5.9,2.7,15.4,13.8,10.3,27.5c-3.6,9.9-16.1,14.9-25.6,16.2C272,374,270.4,374.2,268.6,374.2z
				 M265.5,370.8c1.5,0.5,6.4,0.6,12.5-1c4.4-1.2,14.9-4.8,18-13.2c3.5-9.4-1-17.6-5.9-21.8c-2.5-2.1-4.4-2.5-4.8-2.3
				C283,336.7,268.4,365.1,265.5,370.8z"/>
		</g>
	</g>
	<g>
		<g>
			<path class="st6" d="M126.7,332.2c2.5-6.3,44.8-59.5,51-54c5.6,5-22.8,44.8-30.8,67.3C145,350.1,123.5,342.3,126.7,332.2z"/>
			<path class="st6" d="M198,245.8c-5.2-3.3-11.5-0.8-15.8,5.7c-2.9,4.4-2.6,12.5,1.5,15.3c3.8,2.7,11.7,0,15-5.2
				C202.6,255.6,201.4,247.9,198,245.8z"/>
		</g>
		<g>
			<path class="st4" d="M147.7,348.9c-2.1,0-4.4-0.6-6.5-1.3c-7.2-2.7-14-8.6-11.8-15.2l0-0.1c2.5-6.4,39.3-52.6,50.1-55.2
				c1.7-0.4,2.7,0.1,3.3,0.6c4,3.5-1.9,14.4-13.4,35.1c-6.7,12-13.6,24.4-17,33.8C151.7,348.3,149.9,348.9,147.7,348.9z
				 M132.2,333.3c-1.5,4.8,4.1,9.3,10,11.5c4.6,1.7,7.2,1.2,7.4,0.7c3.4-9.6,10.4-22.1,17.1-34.2c4.5-8,8.7-15.5,11.4-21.4
				c3.9-8.5,2.8-9.8,2.7-10l0,0c0,0-0.3-0.1-1.1,0.2c-4.5,1.7-14.3,11.2-26.9,26.1C142.3,318.6,133.3,330.7,132.2,333.3z"/>
		</g>
		<g>
			<path class="st4" d="M191.6,270c-1.8,0-3.4-0.4-4.7-1.3c-5-3.5-5.2-12.5-1.9-17.4c4.9-7.4,12.1-9.8,17.9-6.1h0
				c4.1,2.6,5.5,11.2,1.1,17.9c-2.1,3.3-6,5.9-10,6.7C193.1,269.9,192.3,270,191.6,270z M197.2,246.5c-3.4,0-7,2.3-9.7,6.4
				c-2.5,3.7-2.4,10.8,1.1,13.3c1.1,0.8,2.8,1,4.8,0.6c3.2-0.6,6.4-2.7,8.1-5.3c3.5-5.5,2.3-12.1-0.2-13.8h0
				C200,246.9,198.6,246.5,197.2,246.5z"/>
		</g>
	</g>
	<g>
		<g>
			<path class="st3" d="M439.3,135.8c-11.9,0-21.5-9.6-21.5-21.5s9.6-21.5,21.5-21.5s21.5,9.6,21.5,21.5S451.2,135.8,439.3,135.8z
				 M439.3,95.8c-10.2,0-18.5,8.3-18.5,18.5s8.3,18.5,18.5,18.5s18.5-8.3,18.5-18.5S449.5,95.8,439.3,95.8z"/>
		</g>
		<g>
			<path class="st3" d="M386.4,313c-1.7,0-3.5-0.1-5.4-0.1c-1.1,0-2-0.1-2.7-0.1h-1.9l0.1-1.9c0.6-8.6,2.5-47.9,2.7-56.8
				c-1.4-3.8-2.7-7.5-4-11c-8.3-22.5-13.8-37.3-11.1-44.7c4.7-12.9,15.3-30.4,21.6-40.9c1.6-2.6,3-5,4-6.7c-5.2,1-18,6.7-19.8,8.8
				c-8.6,9.6-20.2,20.9-25.9,23.9c-1.1,0.6-2.1,0.2-2.7-0.5c-0.4-0.6-1.8-2.3,4.2-15.7c1.8-4,6.6-14,11.6-19.2
				c17.8-18.6,44.2-20.7,54.2-18.8c5.1,1,18.3,7.3,23.5,10c5,2.6,38.1,43.4,40.6,53.1c0.3,1.2,0.2,2.2-0.2,2.9c-0.4,0.6-1,1-1.7,1.1
				c-2.8,0.3-7.6-3.8-19.7-15c-7.3-6.8-21-19.3-23.9-18.9c-9.5,8.4-21.1,33.2-21.6,36.7c0,2.1,6.4,14.9,10.6,23.5
				c4.8,9.6,7.7,15.7,8.2,17.8c0.6,2.8,0.4,18.5-0.3,32.3c-1.6,29.5-4.4,30.9-5.7,31.5c-6,2.9-9.7,2.8-11.6,2.7l-0.3,0
				c-0.6,0-1.2-0.3-1.6-0.8c-2.1-2.4-2.1-14.2,0.1-47c0.3-4.6,0.6-8.3,0.6-9.3c0-3.7-8.9-19.4-12.7-23.2c0.2,3,2,9.6,3.1,13.9
				c1.8,6.8,2.9,11.1,2.7,13.2c-0.1,1-0.3,4.4-0.6,8.8c-2.7,44.2-4,48-5.9,49C393.1,312.8,390.1,313,386.4,313z M380.3,309.4
				c0.3,0,0.6,0,0.9,0c3.1,0.1,9.4,0.3,11.6-0.5c1.8-4,3.7-34.6,4.4-46.3c0.3-4.6,0.5-8,0.6-9c0.2-1.5-1.3-7.1-2.6-11.9
				c-3.5-13-4.4-17.6-1.5-18.8c0.9-0.4,1.9-0.2,2.9,0.5c4.7,3.1,15.1,21.6,15.1,26.7c0,1.2-0.2,4.7-0.6,9.6
				c-0.7,10.9-2.7,39.3-1.1,44.1c1.8,0.1,4.7,0,9.5-2.3c1-1.1,2.8-8.5,3.9-29.6c0.8-14.9,0.7-28.5,0.3-30.4c-0.4-1.8-4.2-9.5-7.9-17
				c-7.7-15.5-11.2-23.1-10.9-25.5c0.5-4,12.3-29.8,22.8-39c3.7-3.3,11.6,3.3,28.5,19c5.4,5,12.4,11.5,15.6,13.5
				c-3.7-9.3-34.3-47.6-38.6-49.9c-5.5-2.9-18.1-8.9-22.5-9.7c-9.4-1.8-34.2,0.2-51,17.7c-6.2,6.4-12.8,21.8-14.8,28.2
				c5.3-3.9,14.4-12.5,22.3-21.4c3.2-3.6,21.3-11.2,25.2-9.9c0.9,0.3,1.5,1,1.6,1.9c0.1,1-0.3,1.7-5.3,10
				c-6.3,10.4-16.7,27.7-21.3,40.2c-2.2,6.1,3.6,22.1,11.1,42.2c1.3,3.6,2.7,7.4,4.2,11.3l0.1,0.3l0,0.3
				C382.7,261.6,381,297.9,380.3,309.4z M392.7,309.1L392.7,309.1L392.7,309.1z M409.2,303.8L409.2,303.8
				C409.2,303.8,409.2,303.8,409.2,303.8z M472.3,194L472.3,194L472.3,194z M430.1,162.7L430.1,162.7
				C430.1,162.7,430.1,162.7,430.1,162.7z"/>
		</g>
		<g>
			<path class="st3" d="M449.2,294.1l0.2-2.1c0,0,7.4-82.4,7.8-86.4c0.3-3.6,2-6.8,4.6-8.9c2.4-1.9,5.5-2.7,8.9-2.2
				c7.4,1,18.4,12.1,18.4,14.5c0,0.5-0.2,1.3-1.4,1.9c-1.7,0.9-5.5,1.3-7.4-0.1l0,0c-0.4-0.3-1-0.9-1.8-1.5
				c-1.9-1.7-5.9-5.2-7.9-5.2c-1.9,0.1-3.7,0.8-4.3,5c-0.5,3.9-7.1,80.6-7.2,81.4l-0.1,1.1L449.2,294.1z M468.7,197.3
				c-2,0-3.7,0.6-5.1,1.7c-1.9,1.5-3.2,4-3.4,6.8c-0.3,3.6-6.4,71.4-7.6,84.3l3.6-0.9c0.8-9.7,6.7-76.7,7.1-80.4
				c0.6-4.9,3-7.4,7.1-7.6c3.1-0.1,6.6,2.9,10.1,5.9c0.7,0.6,1.2,1.1,1.6,1.4c0.6,0.4,2.4,0.4,3.5,0.1c-2.3-2.9-9.9-10.3-15.3-11.1
				C469.7,197.4,469.2,197.3,468.7,197.3z"/>
		</g>
		<g>
			<path class="st7" d="M447.8,116.6c-0.3,3-3.3,5.1-6.8,4.7c-3.4-0.3-6-3-5.7-6c0.3-3,3.3-5.1,6.8-4.7
				C445.6,110.9,448.1,113.6,447.8,116.6z"/>
			<path class="st8" d="M463.2,119.5c-0.3,2.8-3.1,4.7-6.3,4.4c-3.2-0.3-5.6-2.8-5.3-5.6c0.3-2.8,3.1-4.7,6.3-4.4
				C461.1,114.2,463.5,116.7,463.2,119.5z"/>
		</g>
	</g>
	<g>
		<g>
			<path class="st6" d="M351.4,310.8c-37.5,0-101.6-53.8-113.9-67l-1.1-1.1l1-1.2c9.3-11.2,9.7-36.9,7-44.4
				c-2-5.4-5.3-10.6-8.5-15.7c-4.8-7.7-9.4-14.9-8.9-22c0.8-9.7,6-21,10.3-30c2.3-4.9,4.9-10.5,4.7-12.1c-0.2-0.6-2.1-2.5-3.7-4.1
				c-9-9-30.2-29.9-32.8-78.8l0-0.1c0-2.1,1.1-3.8,2.7-4.2c1.6-0.4,3.2,0.4,4.1,2.1c1.2,2.1,2.7,5.4,4.6,9.5
				c7.6,16.1,21.8,45.9,33,48.6c6.4-1.4,9.7,1.3,13,4c2.1,1.8,4.3,3.6,7.7,4.6c2.6,0.4,4.9,0.2,7,0c3.3-0.4,7.1-0.8,8.4,3.6
				c6.9,20.4,22.8,20.5,54.6,20.6c5.2,0,10.6,0,16.5,0.1c0.8,0,1.5,0.3,2,0.8c0.7,0.7,1.1,1.8,1,2.8c-0.1,1.1-0.8,2-1.7,2.6
				c-8.5,5-26.2,11.4-44.8,11.4c-10.1,0-20.4-1.9-29.7-6.8c3.3,63.7,26.7,97.4,53.8,136.3c8,11.6,16.4,23.5,24.4,36.7l1.1,1.9
				l-2.1,0.7C358.1,310.3,354.9,310.8,351.4,310.8z M241,242.5c18.6,19.1,85.3,71.3,116.7,64.1c-7.6-12.3-15.4-23.6-23.1-34.5
				c-26.4-37.9-51.4-73.8-54.5-139.3c0-0.3-0.1-2.5,1.4-3.3c0.7-0.3,1.4-0.2,2,0.2c25.1,14.6,59.2,4.2,72.3-3.3
				c-5.5-0.1-10.6-0.1-15.5-0.1c-32.4-0.1-50.2-0.1-57.9-23c-0.4-1.4-0.8-1.6-4.7-1.2c-2.2,0.2-4.9,0.5-8,0l-0.2,0
				c-4.1-1.2-6.8-3.3-9.1-5.3c-3.1-2.6-5.3-4.4-10.3-3.2l-0.4,0.1l-0.4-0.1c-12-2.3-24.8-27.3-35.8-50.6c-1.8-3.9-3.4-7.2-4.5-9.3
				c0-0.1-0.1-0.1-0.1-0.2c0,0.1-0.1,0.3-0.1,0.6c2.5,47.5,23,67.8,31.8,76.5c2.9,2.9,4.5,4.4,4.7,6.1c0.4,2.5-1.5,6.5-5,14.1
				c-4.1,8.8-9.3,19.7-10,28.8c-0.5,6,3.8,12.7,8.3,19.9c3.3,5.2,6.7,10.6,8.8,16.4C250.4,203.4,250.5,229.4,241,242.5z"/>
		</g>
		<g>
			<path class="st6" d="M278.7,93.2c-11.9,0-21.5-9.6-21.5-21.5s9.6-21.5,21.5-21.5s21.5,9.6,21.5,21.5S290.5,93.2,278.7,93.2z
				 M278.7,53.2c-10.2,0-18.5,8.3-18.5,18.5s8.3,18.5,18.5,18.5s18.5-8.3,18.5-18.5S288.9,53.2,278.7,53.2z"/>
		</g>
		<g>
			<path class="st1" d="M240.9,84.8c3.2,4.5,6.8,9.3,14.7,6.4c11.8-28.2,24.8-30.7,33-31.6c2.4-0.3,4.5-0.5,6-1.3
				c0.1-0.6-0.2-1.8-0.4-2.5l0-0.1c-1.8-3.4-4.8-5.5-8.7-6.3c-8.2-1.6-18.7,2.8-24.8,8.1C253,63.9,244.3,76.2,240.9,84.8z"/>
		</g>
		<g>
			<path class="st6" d="M252.1,92.7c-6.2,0-10.5-3.6-14.1-8l-0.4-0.7l0.3-0.8c3.3-9,12.2-21.4,20.3-28.2c6.4-5.5,17.7-10.5,27.2-8.6
				c4.9,1,8.8,3.8,11,8.2l0.1,0.2l0.1,0.6c0.4,1.9,1.1,5.2-1.4,6.2c-2.1,1.1-4.5,1.4-7.1,1.7c-7.7,0.9-18.3,2-29.2,28.3l-0.3,0.7
				l-0.7,0.3C255.8,93.3,254,92.7,252.1,92.7z M241.1,84.3c3.2,4.4,6.6,9.1,14.3,6.3c11.5-27.5,24.1-29.9,32.2-30.8
				c2.3-0.3,4.4-0.5,5.8-1.3c0-0.6-0.2-1.8-0.4-2.4l0-0.1c-1.8-3.3-4.6-5.4-8.5-6.1c-8-1.6-18.2,2.8-24.2,7.9
				C252.9,63.9,244.5,75.9,241.1,84.3z"/>
		</g>
	</g>
	<g>
		<g>
			<path class="st5" d="M559.6,133.8c-11.9,0-21.5-9.6-21.5-21.5s9.6-21.5,21.5-21.5c11.9,0,21.5,9.6,21.5,21.5
				S571.4,133.8,559.6,133.8z M559.6,93.8c-10.2,0-18.5,8.3-18.5,18.5s8.3,18.5,18.5,18.5c10.2,0,18.5-8.3,18.5-18.5
				S569.8,93.8,559.6,93.8z"/>
		</g>
		<g>
			<path class="st5" d="M490,277l-0.9-0.3c-1.2-0.5-1.5-1.6-1.7-4.6c-1.1-12.8,0.4-67.6,26.7-84.1c1.3-4.6,2.8-10,4-14.4
				c1.2-4.4,2.1-7.6,2.4-8.5c2.8-8.8,8.6-24.1,16.5-27.6c8.7-3.9,27.9-2.7,34.5,6c24.3,24.3,54.2,6.3,67-1.4c5-3,7-4.2,8.3-2.2
				c0.7,1.1,0.1,2.2-0.1,2.6c-2.8,5.7-27.5,29.9-45.2,31.8c-11,1.2-21.3-0.7-34.1-6.4c-3,7.7-7.4,22.2-9.9,30.4
				c3.8,2.4,8.3,7.4,12.4,13.6c3.8,5.7,8.9,15.1,12,27.4l0.4,1.7l-1.7,0.4c-25,5.6-72.2,23.2-89.7,35.1L490,277z M549,138.9
				c-4.1,0-8,0.6-10.6,1.8c-4.8,2.1-10.2,11.6-14.5,25.4c-0.2,0.8-1.2,4.3-2.3,8.3c-1.3,4.6-2.8,10.4-4.2,15.1l-0.2,0.7l-0.6,0.4
				c-14.3,8.6-20.7,29.9-23.4,46.2c-2.7,16-2.6,30.2-2.1,35.3c18.8-11.7,62.3-27.9,87-33.8c-3-11-7.6-19.4-11-24.6
				c-5-7.6-9.7-11.8-12.4-13.1l-1.3-0.7l0.4-1.4c2.8-9.2,8-26.2,11.1-33.7l0.7-1.7l1.7,0.8c13,6,23.1,8,33.9,6.8
				c13.7-1.5,32.2-17.7,39.4-25.8c-0.1,0-0.2,0.1-0.2,0.1c-12.4,7.4-45.2,27.1-71.4,0.8l-0.2-0.2C565.3,141,556.7,138.9,549,138.9z"
				/>
		</g>
		<path class="st1" d="M565.9,138.2c1.8-2,7.8,0.3,8.5,5.6c0.2,1.8-4.8,29.7-4.7,30.5c1.1,0.4,4.4,0.2,2.5,3.3
			c-19.4,30.6-42.9,58.4-70.1,44.3c-13.8-7.1,10.8-53.4,12.6-55.5c2.4-2.8,4.5,0.8,5.8,2.1s7.4,8.4,18.6,10.6
			c9,1.8,22.4-3.4,23.9-3.9s6-30.6,5.9-31.9C568.8,141.8,568.2,139.6,565.9,138.2z"/>
		<g>
			<path class="st5" d="M516.6,227c-4.9,0-10-1.2-15.3-3.9c-2.4-1.3-4-3.6-4.7-6.8c-1.6-8,2.7-21,6.7-30.5
				c4.2-10.2,9.2-19.3,10.1-20.5c0.9-1.1,1.9-1.6,3-1.6c0,0,0,0,0,0c2,0,3.4,1.7,4.4,3c0.2,0.2,0.4,0.5,0.6,0.7l0.2,0.2
				c6.1,6.6,13,9.1,17.7,10c3.6,0.7,10.5,0.7,22.6-3.7l0,0c1.5-3.6,5.4-28.4,5.4-30.5c-0.1-0.9-0.5-2.6-2.3-3.8l-1.5-1l1.2-1.3
				c1.1-1.2,2.9-1.5,4.9-0.9c2.7,0.8,5.7,3.4,6.2,7.3c0.1,1.1-0.6,6-3.3,22.1c-0.5,3-1,5.8-1.2,7.4c1,0.2,2.2,0.6,2.7,1.8
				c0.6,1.4-0.3,2.9-0.6,3.4C558.4,201.9,539.1,227,516.6,227z M516.5,166.7c-0.2,0-0.5,0.2-0.7,0.5c-1.8,2.2-19,34.9-16.1,48.6
				c0.5,2.3,1.5,3.8,3.1,4.6c11.9,6.2,23.8,4.4,36.4-5.2c9.8-7.5,19.9-19.8,31.8-38.5c0.2-0.2,0.2-0.4,0.3-0.5
				c-0.3-0.1-0.7-0.2-1-0.2c-0.4-0.1-0.8-0.1-1.1-0.3l-0.9-0.3l-0.1-1c0-0.4,0.1-1.1,1.4-9.1c1.2-7.4,3.3-19.9,3.3-21.3
				c-0.3-2.4-2.2-4.1-3.9-4.7c1,1.4,1.3,2.9,1.3,3.8c0.1,1.1-1.5,11.3-2.4,16.6c-2.7,16.2-3.5,16.4-4.5,16.8l-0.5,0.2
				c-10.1,3.7-18.5,5-24.2,3.8c-5.1-1-12.6-3.8-19.3-10.9l-0.2-0.2c-0.2-0.2-0.4-0.5-0.7-0.8C518.1,167.9,517.1,166.7,516.5,166.7
				C516.5,166.7,516.5,166.7,516.5,166.7z M561.8,174L561.8,174L561.8,174z M562.4,173.6C562.4,173.6,562.4,173.6,562.4,173.6
				L562.4,173.6z"/>
		</g>
		<g>
			<path class="st1" d="M510.8,184L510.8,184L510.8,184z M515.8,164.4c-0.3,0-0.6,0.4-0.8,0.8c-0.4,1-0.2,2,0.2,2.4
				c0.4,0.4,0.6,1,0.6,1.6c-0.1,0.6-0.5,1.1-1,1.3c-1.8,0.8-3,2.3-3.8,4.4c-0.9,2.6-0.8,5.6-0.6,7.5c1-0.9,2.3-2.3,3.4-4
				c2-3,2.8-5.7,2.2-7.3c-0.2-0.5-0.1-1.1,0.2-1.6c0.3-0.5,0.9-0.7,1.4-0.7c0.7,0,1.1-0.3,1.3-0.6c0.4-0.6,0.6-1.4,0.3-2.3
				c-0.1-0.5,0-1,0.3-1.4c0.3-0.4,0.8-0.7,1.3-0.7c0.9-0.1,1.6-0.6,2-1.3c0.3-0.7,0.2-1.5-0.3-2.3c-0.4-0.5-0.4-1.2-0.1-1.8
				c0.3-0.6,0.9-0.9,1.5-0.9c0,0,0.1,0,0.1,0c1,0,1.5-0.5,1.8-0.9c0.4-0.6,0.5-1.4,0.2-2.1c-0.2-0.6-0.2-1.2,0.2-1.7
				c0.3-0.5,0.9-0.8,1.5-0.8c0.5,0,1-0.6,1.2-0.8c0.6-0.9,0.8-2.1,0.5-2.8c-0.3-0.6-0.2-1.3,0.2-1.8c0.4-0.5,1.1-0.8,1.7-0.6
				c0.2,0,0.7,0.1,1.3-0.6c0.9-1,1.1-2.5,0.9-2.8c-0.3-0.6-0.2-1.2,0.1-1.8c0.4-0.5,1-0.8,1.6-0.7c0.4,0,0.9-0.3,1.4-0.8
				c1-1.1,1.5-2.9,1.2-3.7c-0.1-0.5-0.1-1,0.2-1.4c0.3-0.4,0.7-0.7,1.2-0.8c0.3,0,0.9-0.4,1.4-1.1c0.4-0.6,0.5-1.2,0.4-1.4
				c-0.2-0.5-0.1-1.1,0.3-1.6c0.3-0.5,0.9-0.7,1.4-0.7c13.6,0.2,27.3-17,31.6-26.2c0.7-1.5,0.3-4.7-1.3-6.7c-1-1.2-2.1-1.6-3.4-1.3
				c-0.7,0.2-1.4-0.1-1.9-0.7c-1.9-2.7-6.1-4.2-10.9-3.8c-6.3,0.5-14.4,4.2-18.5,12.9l-1.6-0.7l1.6,0.7c-0.9,2-5.2,12.6,2,24.3
				c0.3,0.6,0.3,1.2,0,1.8c-0.3,0.6-0.9,0.9-1.6,0.9c-1-0.1-1.9,0.3-2.4,1c-0.3,0.4-0.3,0.9-0.1,1.4c0.2,0.5,0.2,1.2-0.2,1.7
				c-0.3,0.5-0.9,0.8-1.4,0.8c0,0-0.1,0-0.1,0c-0.8,0-1.5,0.3-2,0.8c-0.7,0.8-1,2-0.9,3.5c0,0.5-0.1,1-0.5,1.3
				c-0.3,0.4-0.8,0.6-1.3,0.6c0,0,0,0,0,0c-1.2,0-2.2,0.5-2.7,1.3c-0.4,0.7-0.4,1.5-0.1,2.2c0.3,0.6,0.3,1.3-0.1,1.8
				c-0.4,0.5-1,0.8-1.6,0.8c-0.6-0.1-1.6,0.5-2.2,1.4c-0.5,0.8-0.5,1.5-0.1,2.2c0.3,0.6,0.3,1.3-0.1,1.9c-0.4,0.6-1.1,0.8-1.7,0.7
				c-0.5-0.1-1,0.1-1.3,0.6c-0.5,0.7-0.5,1.7,0.1,2.6c0.3,0.5,0.3,1.1,0,1.7c-0.3,0.5-0.8,0.9-1.4,0.9c-0.8,0.1-1.4,0.4-1.7,0.9
				c-0.3,0.6-0.2,1.4,0.3,2.3c0.3,0.5,0.3,1.2,0,1.7C517,164.1,516.5,164.4,515.8,164.4C515.8,164.4,515.8,164.4,515.8,164.4z"/>
		</g>
		<g>
			<path class="st9" d="M509.6,186.8c-0.7,0-1.2-0.4-1.4-0.6c-1.1-1.3-1.8-6.3-1-10.4c0.7-3.3,2.2-5.8,4.5-7.5
				c-0.5-1.4-0.3-3.1,0.2-4.3c0.4-1,1-1.8,1.8-2.3c-0.3-1.3-0.2-2.6,0.4-3.8c0.5-1,1.3-1.7,2.3-2.2c-0.3-1.5,0-3.1,0.9-4.3
				c0.6-0.8,1.4-1.4,2.2-1.8c-0.1-1.2,0.2-2.4,1-3.5c0.8-1.2,1.9-2.1,3.2-2.6c-0.1-1.2,0.2-2.4,0.8-3.5c0.9-1.4,2.3-2.4,4-2.8
				c0.2-1.8,0.8-3.4,1.9-4.5c0.7-0.8,1.6-1.3,2.6-1.6c0-0.9,0.3-1.8,0.9-2.6c0.6-0.9,1.5-1.6,2.6-2c-6.4-12.4-1.9-23.3-0.9-25.5
				c4.7-10.1,14.1-14.3,21.4-14.9c5.7-0.5,10.6,1.2,13.4,4.4c2.2-0.1,4.2,0.8,5.8,2.7c2.3,2.9,3.1,7.4,1.7,10.4
				c-4,8.6-17.7,27.1-33.1,28.2c-0.1,0.7-0.4,1.4-0.9,2.1c-0.6,0.9-1.4,1.7-2.2,2.2c-0.1,1.9-1,3.9-2.1,5.2
				c-0.7,0.8-1.5,1.4-2.3,1.8c-0.1,1.5-0.7,3-1.6,4.1c-0.7,0.9-1.6,1.6-2.5,1.9c0,1.3-0.4,2.7-1.2,3.9c-0.6,0.8-1.3,1.5-2,1.9
				c0.1,1.2-0.2,2.4-0.9,3.4c-0.6,0.9-1.4,1.6-2.4,2c0.3,1.2,0.1,2.4-0.4,3.5c-0.6,1.3-1.7,2.3-3,2.8c0,1.3-0.4,2.6-1.2,3.6
				c-0.5,0.7-1.3,1.3-2.1,1.6c0.3,5.9-6.1,13-8.7,14.6C510.5,186.6,510,186.8,509.6,186.8z M510.9,184L510.9,184L510.9,184z
				 M515.9,164.4c-0.3,0-0.6,0.4-0.8,0.8c-0.4,1-0.2,2,0.2,2.4c0.4,0.4,0.6,1,0.6,1.6c-0.1,0.6-0.5,1.1-1,1.3
				c-1.8,0.8-3,2.3-3.8,4.4c-0.9,2.6-0.8,5.6-0.6,7.5c1-0.9,2.3-2.3,3.4-4c2-3,2.8-5.7,2.2-7.3c-0.2-0.5-0.1-1.1,0.2-1.6
				c0.3-0.5,0.9-0.7,1.4-0.7c0.7,0,1.1-0.3,1.3-0.6c0.4-0.6,0.6-1.4,0.3-2.3c-0.1-0.5,0-1,0.3-1.4c0.3-0.4,0.8-0.7,1.3-0.7
				c0.9-0.1,1.6-0.6,2-1.3c0.3-0.7,0.2-1.5-0.3-2.3c-0.4-0.5-0.4-1.2-0.1-1.8c0.3-0.6,0.9-0.9,1.5-0.9c0,0,0.1,0,0.1,0
				c1,0,1.5-0.5,1.8-0.9c0.4-0.6,0.5-1.4,0.2-2.1c-0.2-0.6-0.2-1.2,0.2-1.7c0.3-0.5,0.9-0.8,1.5-0.8c0.5,0,1-0.6,1.2-0.8
				c0.6-0.9,0.8-2.1,0.5-2.8c-0.3-0.6-0.2-1.3,0.2-1.8c0.4-0.5,1.1-0.8,1.7-0.6c0.2,0,0.7,0.1,1.3-0.6c0.9-1,1.1-2.5,0.9-2.8
				c-0.3-0.6-0.2-1.2,0.1-1.8c0.4-0.5,1-0.8,1.6-0.7c0.4,0,0.9-0.3,1.4-0.8c1-1.1,1.5-2.9,1.2-3.7c-0.1-0.5-0.1-1,0.2-1.4
				c0.3-0.4,0.7-0.7,1.2-0.8c0.3,0,0.9-0.4,1.4-1.1c0.4-0.6,0.5-1.2,0.4-1.4c-0.2-0.5-0.1-1.1,0.3-1.6c0.3-0.5,0.9-0.7,1.4-0.7
				c13.6,0.2,27.3-17,31.6-26.2c0.7-1.5,0.3-4.7-1.3-6.7c-1-1.2-2.1-1.6-3.4-1.3c-0.7,0.2-1.4-0.1-1.9-0.7
				c-1.9-2.7-6.1-4.2-10.9-3.8c-6.3,0.5-14.4,4.2-18.5,12.9l-1.6-0.7l1.6,0.7c-0.9,2-5.2,12.6,2,24.3c0.3,0.6,0.3,1.2,0,1.8
				c-0.3,0.6-0.9,0.9-1.6,0.9c-1-0.1-1.9,0.3-2.4,1c-0.3,0.4-0.3,0.9-0.1,1.4c0.2,0.5,0.2,1.2-0.2,1.7c-0.3,0.5-0.9,0.8-1.4,0.8
				c0,0-0.1,0-0.1,0c-0.8,0-1.5,0.3-2,0.8c-0.7,0.8-1,2-0.9,3.5c0,0.5-0.1,1-0.5,1.3c-0.3,0.4-0.8,0.6-1.3,0.6c0,0,0,0,0,0
				c-1.2,0-2.2,0.5-2.7,1.3c-0.4,0.7-0.4,1.5-0.1,2.2c0.3,0.6,0.3,1.3-0.1,1.8c-0.4,0.5-1,0.8-1.6,0.8c-0.6-0.1-1.6,0.5-2.2,1.4
				c-0.5,0.8-0.5,1.5-0.1,2.2c0.3,0.6,0.3,1.3-0.1,1.9c-0.4,0.6-1.1,0.8-1.7,0.7c-0.5-0.1-1,0.1-1.3,0.6c-0.5,0.7-0.5,1.7,0.1,2.6
				c0.3,0.5,0.3,1.1,0,1.7c-0.3,0.5-0.8,0.9-1.4,0.9c-0.8,0.1-1.4,0.4-1.7,0.9c-0.3,0.6-0.2,1.4,0.3,2.3c0.3,0.5,0.3,1.2,0,1.7
				C517.1,164.1,516.5,164.4,515.9,164.4C515.9,164.4,515.9,164.4,515.9,164.4z"/>
		</g>
	</g>
	<g>
		<path class="st0" d="M65,233.2c6.5-20.3,34.2-42.1,63.8-26.6c31.6,16.6,43.3,47.6,15.8,80.3C116,320.7,79.2,332.6,34,300.3
			c-40-28.5-48.4-79.2-5-126.3c47.7-51.6,127.6-23.6,153-2.6c18.4,15.2,40.8,43.9,57.6,64.4c9.3,11.3,8.4,15.8,13.2,21.1
			c0.5,0.6-9.2-10.6-9.6-10.8c-2.4-1.9-47.9-41.6-74.5-62.3c-23.8-18-83.3-27.7-115.3,11.7c-32,39.3-21.1,80.8-4.1,94.1
			c17,13.3,55.8,1.2,73.8-17.5s7.4-40.1-4.3-47.8c-11.7-7.7-28.1-7.2-40.1,9.2c-12,16.3-2.1,22.4-5.3,25
			C70.1,261.1,60.3,248,65,233.2z"/>
		<g>
			<linearGradient id="SVGID_1_" gradientUnits="userSpaceOnUse" x1="3.1601" y1="232.2782" x2="259.4374" y2="232.2782">
				<stop  offset="0" style="stop-color:#2B3990"/>
				<stop  offset="0.1248" style="stop-color:#2A3893"/>
				<stop  offset="0.2825" style="stop-color:#293896"/>
				<stop  offset="0.6733" style="stop-color:#005BAA"/>
				<stop  offset="0.8876" style="stop-color:#009FDE"/>
				<stop  offset="1" style="stop-color:#009FDE"/>
			</linearGradient>
			<path class="st10" d="M89.8,321.3c-16.6,0-34-6.4-52-19.2c-19.9-14.1-32-33.8-34.2-55.4c-2.5-24.6,7.5-49.8,29-73.1
				c26.6-28.8,60.2-32,83.6-29.6c28,2.9,53.5,14.9,66.5,25.6c18.1,14.9,39.6,42,56.9,63.7c7.5,9.5,14,17.6,19,23.3l0.9,1l-0.9,1
				c-1,1-1.7,0.4-3.4-0.9c-0.9-0.7-2-1.5-3.2-2.5c-2.4-1.9-5-3.9-5.7-4.5l-0.2-0.2c-0.6-0.5-3.1-2.6-8.2-7.2
				c-15-13.3-46.3-41.1-66.7-56.9c-12.7-9.6-33.6-15.8-53-15.8c-17.1,0-41.2,4.6-58.9,26.3c-15,18.4-22,39.7-19.8,59.8
				c1.5,13.8,7.3,25.8,15.4,32.2c16.1,12.7,54.1,0.9,71.7-17.4c6.9-7.1,10-15.4,9.1-23.9c-1.2-10.3-7.8-18.1-13.1-21.6
				c-9.8-6.5-25.7-8-38.1,8.8c-7.6,10.4-5.9,16.3-4.9,19.8c0.6,2,1.2,4-0.7,5.5c-0.6,0.5-2.2,1.3-4.5-0.3c-2.5-1.7-4.9-5.5-6.3-10
				c-1.2-3.8-2.1-9.8,0.1-16.7l0,0c4-12.6,15.1-24.2,28.2-29.6c8.6-3.5,22.2-6,37.7,2.1c17.2,9,28.3,22.2,31.2,37
				c2.9,14.7-2.3,30.4-15,45.5c-15.3,18.2-32.1,29-49.9,32.1C96.9,321,93.4,321.3,89.8,321.3z M103.8,146.3
				c-21.3,0-47.5,6-69.1,29.3c-20.9,22.6-30.7,47.1-28.2,70.8c2.1,20.7,13.9,39.6,33,53.2c40.4,28.8,76.9,24.3,108.5-13.2
				c12.1-14.4,17.1-29.3,14.4-43c-2.7-13.9-13.3-26.3-29.7-34.9c-14.5-7.6-27.1-5.3-35.2-2c-12.3,5-22.7,15.9-26.4,27.7l-1.4-0.5
				l1.4,0.5c-3.2,9.9,0.5,18.7,3.8,22.2c1.2,1.3,2,1.5,2.2,1.5c0.2-0.2,0.1-0.8-0.3-2.3c-1.1-3.8-3.1-10.8,5.4-22.4
				c5.8-7.9,13.1-12.8,21.1-14.2c7.1-1.2,14.6,0.4,21,4.6c7.7,5.1,13.3,14.4,14.4,23.7c0.7,6.6-0.4,16.5-9.9,26.3
				c-9,9.4-23.2,17.3-37.9,21.2c-15.8,4.2-29.6,2.9-37.8-3.5c-8.7-6.9-14.9-19.6-16.6-34.2c-2.3-20.9,4.9-43,20.4-62
				c33.1-40.7,92.2-28.9,116.1-10.9c20.4,15.9,51.8,43.7,66.8,57.1c3.9,3.5,6.8,6.1,7.8,6.8c-3.2-3.9-6.6-8.2-10.3-12.9
				c-17.2-21.6-38.6-48.6-56.5-63.3c-12.6-10.4-37.5-22.1-64.8-24.9C112.1,146.5,108.1,146.3,103.8,146.3z"/>
		</g>
	</g>
	<linearGradient id="SVGID_2_" gradientUnits="userSpaceOnUse" x1="219.6566" y1="326.2039" x2="640.3232" y2="326.2039">
		<stop  offset="2.424570e-03" style="stop-color:#0095D8"/>
		<stop  offset="4.847471e-02" style="stop-color:#0099DA"/>
		<stop  offset="0.1268" style="stop-color:#009DDD"/>
		<stop  offset="0.2104" style="stop-color:#009FDE"/>
		<stop  offset="0.5252" style="stop-color:#BFC8CC"/>
		<stop  offset="0.7723" style="stop-color:#C2BEA7"/>
		<stop  offset="1" style="stop-color:#CDB9A3"/>
	</linearGradient>
	<path class="st11" d="M640.3,233.5c-20.5-3-83.3-0.5-156.7,39.8c-123.5,64.5-180.5,20.2-264-49.1c2.7,3.4,5.5,7.1,8.2,10.3
		c38.3,37.8,71.5,65.8,103.1,76.3c0,5.3,0.3,16.1,3,19.9c2.2,3.2,20,2.9,22.9,3.7c4.2,1.2-4.3,32.3,1.4,35.1
		c3.2,1.5,15.7-0.7,28.6-3.3c-6,7-17.4,17.4-22.3,23c-3.4,3.9-3.4,7.9-1.5,9.6c2.9,2.5,23.1,1.2,22.6,4.8
		c-0.2,1.8-11.9,18.9-13.2,20.6c-0.5,0.7-3.7,4.5-1.7,3.8c1.7-0.5,19.9-22.1,21.3-24.7c5.5-9.7-26.8-4.9-23.1-11.3
		c0.8-1.4,15.4-19.1,21.5-26.7c14.9-3.1,29.4-6.4,30.3-5.1c1.8,2.7-15,57.2-6.8,59.3c7.9,2,63.7-38.2,67.3-36.7
		c6.3,2.8,4.4,34.4,12.5,36.2c5.8,1.3,47.9-19,51.5-17.6c3.6,1.4,10.5,25.5,13.8,26.6c3.3,1.1,15.2-10.1,19-10
		c3.8,0.1,26.5,8.1,30.5,9c4,0.9,0.4-1.8-2.3-2.7c-5.3-1.8-25.1-10.2-30.1-9.8c-5,0.4-11.7,8.3-14.3,7.5
		c-2.7-0.8-5.8-22.3-16.8-25.6c-3.8-1.1-44.8,17.9-48,15.8c-3.2-2.2-3.8-35.2-14.3-37c-7-1.2-61.9,40.8-65.8,38.7
		c-2.5-1.4,14.8-55.7,9.3-60.5c-7.7-6.7-61.5,13.5-64,10.3c-1.5-1.9,0.4-12.1,1.2-20.7c1.7,2.1,3.5,3.9,5,4.1
		c4.7,0.7,9.5-7.7,11.8-7.8c2.3-0.1,10.3,7.1,12.9,8.1c3.7,1.3,6-8,8-9.5s4.6-2.8,14-3.5c1.6-0.1-3-0.9-5.7-0.7
		c-1.9,0.1-7.2,0.3-9.6,3c-1.9,2.1-5,7.4-6.5,7.5c-1.6,0-8.4-8.7-13.1-7.9c-4.5,0.7-8.3,7.3-10.1,7.1c-1.4-0.2-4.4-5.5-6.4-8.9
		c-0.2-1.8-0.6-3.1-1.3-3.6c-6.4-4.3-21.3-0.7-23.8-3.7c-1.8-2.1-1.6-10-1.4-14.6c30.6,8.6,57.9,5.6,80.3-1.8
		c0.1,4.4,0.8,14.1,3.5,16.3c4.8,3.8,15.5-2.3,18-0.9c2.4,1.3,6.1,12.7,8.5,16.5c0.7,3.8,3.8,8.3,3.2,9.8
		c-0.7,2.1-10.1,6.8-11.9,8.8c-2.5,2.8,5.1,8.3,5.8,10.6c0.6,2.3,0.9,5.1-1.8,13.9c-0.4,1.5,1.9-2.4,2.6-4.9
		c0.5-1.7,2.3-6.6,0.7-9.7c-1.3-2.4-5-7.1-4.4-8.6c0.5-1.4,10.8-4.6,11.8-9c0.7-3.1-1.5-6.8-2.5-9.3c3.9-0.8,9.5-5.9,11.9-6.1
		c3.2-0.3,6.8-0.1,17.7,5.2c1.8,0.9-2.7-2.9-5.8-4.5c-2.1-1.1-8.1-4.4-12.5-3c-3.4,1.1-10.3,5-12,4s-3.7-15-9.3-17.2
		c-5.4-2.1-13.8,2.7-15.8,1.3c-1.6-1.2-1.2-10.8-1.3-15.6c8-3.1,15.9-6.5,24.2-10.4c0.1,3.2,0.6,9.7,2.5,11.3
		c3.3,2.7,10.8-1.6,12.6-0.6c1.8,1,4.7,10.2,6.3,12.1c2.2,2.7,8.3-3.4,10.5-3.7c2.2-0.2,4.8-0.1,12.4,3.7c1.3,0.6-1.9-2-4.1-3.1
		c-1.5-0.7-5.7-3.1-8.7-2.1c-2.4,0.8-7.2,3.5-8.4,2.8c-0.9-0.5-1.9-6.1-4-9.6c0.2-0.2,0.4-0.4,0.6-0.4c1.3-0.3,7.1,3,8.8,3.2
		c2.4,0.3,2.6-5.6,3.6-6.7c1-1.1,2.4-2.2,8-3.9c0.9-0.3-1.9-0.2-3.5,0.3c-1.1,0.3-4.3,1.1-5.4,3c-0.8,1.5-2,5.1-3,5.3
		c-0.9,0.2-6.2-4.1-8.9-3.1c-0.5,0.2-0.9,0.5-1.3,0.8c-0.4-0.4-0.9-0.8-1.4-1c-3.8-1.5-9.7,1.9-11,0.9c-1.2-0.9-0.8-8.1-0.9-11.3
		c12-5.8,25-12.4,40.2-20.4C571,233.8,633,234.7,640.3,233.5z"/>
</g>
</svg>
