<?xml version="1.0" standalone="no"?>
<!DOCTYPE svg PUBLIC "-//W3C//DTD SVG 20010904//EN"
 "http://www.w3.org/TR/2001/REC-SVG-20010904/DTD/svg10.dtd">
<svg version="1.0" xmlns="http://www.w3.org/2000/svg"
 width="1294.000000pt" height="1294.000000pt" viewBox="0 0 1294.000000 1294.000000"
 preserveAspectRatio="xMidYMid meet">
<metadata>
Created by potrace 1.14, written by Peter Selinger 2001-2017
</metadata>
<g transform="translate(0.000000,1294.000000) scale(0.100000,-0.100000)"
fill="#000000" stroke="none">
<path d="M2700 10731 c-30 -10 -69 -25 -87 -34 -55 -29 -130 -110 -164 -177
-30 -61 -32 -72 -33 -170 -1 -89 3 -113 22 -159 28 -63 32 -69 97 -135 46 -47
118 -91 169 -103 46 -10 163 -12 201 -2 70 19 140 58 189 108 84 85 114 155
120 276 8 173 -116 343 -289 397 -58 18 -167 18 -225 -1z m206 -54 c105 -26
211 -136 239 -249 38 -150 -45 -328 -183 -390 -63 -28 -80 -32 -162 -31 -90 1
-165 31 -223 90 -42 41 -84 106 -90 138 -2 11 -7 28 -11 37 -5 10 -6 50 -4 90
8 144 92 259 225 307 46 17 157 21 209 8z"/>
<path d="M1525 10561 c-32 -14 -55 -46 -61 -82 -8 -51 28 -97 106 -136 36 -17
67 -31 70 -30 3 0 23 -7 44 -16 22 -10 50 -20 63 -23 13 -4 26 -10 28 -15 6
-9 92 -24 113 -20 18 3 142 -67 143 -82 0 -7 2 -50 5 -97 l4 -85 -42 -20 c-49
-23 -42 -18 -124 -82 -127 -100 -218 -243 -250 -394 -18 -86 -5 -190 39 -297
l24 -61 -28 -11 c-15 -7 -31 -11 -35 -10 -4 1 -10 -3 -13 -8 -3 -5 -24 -19
-46 -31 -76 -41 -104 -62 -185 -141 -176 -170 -275 -409 -271 -650 1 -105 24
-243 43 -267 6 -7 8 -13 4 -13 -4 0 0 -13 9 -30 9 -16 13 -30 10 -30 -2 0 5
-17 16 -37 12 -21 31 -56 42 -78 12 -22 28 -46 35 -53 6 -7 12 -16 12 -20 0
-4 -33 -20 -73 -37 -255 -103 -480 -268 -677 -495 -30 -35 -62 -70 -70 -79
-21 -22 -106 -141 -164 -231 -56 -85 -176 -317 -176 -340 0 -9 -4 -20 -10 -26
-11 -11 -76 -234 -85 -295 -4 -24 -11 -69 -15 -99 -18 -114 -1 -377 33 -515
13 -53 69 -211 78 -220 5 -5 9 -17 9 -27 0 -10 5 -18 10 -18 6 0 10 -5 10 -11
0 -10 22 -50 75 -137 101 -167 292 -363 470 -482 28 -19 51 -37 53 -42 2 -4 8
-8 13 -8 4 0 39 -20 77 -44 70 -46 308 -168 352 -181 14 -4 30 -11 35 -15 24
-18 240 -84 315 -96 155 -26 360 -26 480 0 102 22 101 22 120 29 8 3 33 11 55
17 48 15 208 82 215 91 3 3 21 14 40 24 33 17 140 84 150 95 3 3 23 18 45 35
123 91 304 272 395 394 14 18 32 41 40 50 38 41 160 259 160 286 0 8 4 15 10
15 5 0 9 3 8 8 -1 4 6 32 17 62 10 30 19 64 21 75 1 11 7 43 13 70 10 50 8
259 -3 305 -11 46 -39 135 -46 145 -4 6 -10 22 -14 38 -3 15 -11 27 -16 27 -6
0 -10 7 -10 15 0 18 -84 144 -127 191 -15 17 -35 40 -44 50 -45 53 -187 164
-286 223 -232 138 -451 182 -678 137 -11 -3 -22 -5 -25 -6 -3 -1 -9 -3 -15 -5
-5 -1 -12 -3 -15 -4 -3 -2 -18 -5 -33 -7 -40 -7 -163 -52 -222 -82 -133 -66
-295 -212 -372 -332 -109 -171 -143 -302 -119 -460 18 -119 91 -241 154 -257
15 -3 41 -15 57 -25 38 -23 56 -23 82 0 27 23 30 45 15 107 -19 74 -20 144 -5
194 13 46 52 132 62 141 3 3 23 30 44 61 113 169 313 277 487 263 36 -3 72 -5
80 -6 37 -2 140 -61 190 -110 96 -92 179 -237 182 -315 0 -5 4 -16 10 -26 10
-20 13 -177 3 -217 -3 -14 -7 -29 -9 -35 -15 -62 -66 -168 -104 -218 -44 -57
-195 -197 -263 -244 -193 -132 -468 -247 -644 -269 -112 -14 -302 -8 -362 12
-10 3 -37 15 -60 25 -24 10 -46 19 -49 19 -7 0 -84 61 -111 86 -61 59 -170
243 -189 319 -4 17 -11 36 -17 43 -5 6 -7 12 -3 12 3 0 1 11 -4 26 -6 14 -12
37 -15 52 -3 15 -7 38 -11 52 -26 113 -24 362 5 510 18 91 23 107 56 208 42
123 116 275 192 391 129 198 223 299 418 449 6 5 26 17 45 28 19 10 37 22 40
26 14 19 246 117 330 139 25 7 50 14 55 15 36 10 191 36 245 41 144 15 379 4
520 -22 19 -4 46 -9 60 -11 39 -7 183 -45 205 -54 11 -4 49 -18 85 -31 142
-49 328 -153 415 -230 11 -10 56 -46 100 -81 77 -60 115 -91 139 -113 6 -5 52
-44 101 -85 50 -41 92 -77 95 -80 3 -3 34 -30 70 -60 66 -56 114 -97 134 -115
11 -10 137 -120 186 -162 14 -12 34 -30 46 -40 98 -84 184 -163 271 -248 57
-55 103 -100 103 -100 0 0 44 -43 98 -95 54 -52 136 -129 182 -170 46 -41 98
-88 116 -105 28 -27 61 -55 169 -150 17 -14 61 -52 100 -83 38 -31 76 -64 85
-72 9 -9 34 -29 55 -45 22 -17 42 -32 45 -35 3 -3 32 -25 65 -50 33 -25 62
-47 65 -50 3 -3 37 -28 75 -55 39 -27 72 -53 73 -57 2 -4 8 -8 13 -8 4 0 52
-30 106 -66 54 -37 98 -65 98 -64 0 2 18 -8 40 -22 103 -64 343 -179 465 -222
l46 -16 2 -83 c2 -45 5 -95 9 -112 3 -16 5 -37 5 -45 -1 -26 20 -114 34 -141
25 -49 107 -67 384 -84 46 -3 89 -10 94 -15 12 -12 13 -126 4 -235 -4 -38 -7
-70 -8 -70 -3 0 -10 -101 -14 -199 -4 -112 3 -160 28 -184 29 -29 244 -12 476
38 25 5 58 12 74 14 28 5 28 5 10 -17 -11 -12 -105 -109 -211 -217 -106 -107
-202 -206 -213 -220 -52 -60 -68 -129 -42 -177 15 -27 63 -39 192 -49 41 -3
94 -7 117 -9 23 -2 57 -7 75 -11 18 -4 35 -8 38 -9 3 0 14 -6 25 -12 19 -11
19 -12 1 -50 -19 -41 -241 -379 -263 -401 -19 -19 -36 -53 -29 -59 15 -16 396
421 432 495 20 42 13 73 -23 94 -28 16 -120 38 -178 44 -189 17 -266 37 -261
69 3 18 87 135 97 135 4 0 10 8 13 18 3 9 18 31 33 47 16 17 66 77 112 135 46
58 90 110 98 116 7 6 13 14 13 18 0 15 80 92 97 93 21 2 52 8 113 22 25 5 59
12 75 15 37 7 72 14 105 21 14 3 36 7 50 10 14 3 36 7 50 10 67 14 161 24 176
18 13 -5 12 -25 -12 -143 -18 -96 -18 -94 -49 -235 -15 -66 -28 -129 -31 -139
-2 -11 -13 -65 -25 -120 -24 -116 -27 -132 -35 -205 -3 -30 -9 -63 -13 -75 -4
-11 -7 -66 -7 -121 1 -128 16 -158 74 -149 43 7 145 50 228 97 32 18 66 36 74
40 8 4 33 18 55 32 22 14 58 35 80 46 22 12 42 24 45 28 3 3 25 17 50 30 25
14 59 35 76 48 17 13 36 23 42 23 7 0 12 4 12 9 0 5 8 11 18 15 9 3 73 41 142
85 167 107 308 193 345 211 17 8 36 20 42 26 7 7 33 20 58 29 35 14 48 15 59
6 15 -13 46 -73 51 -100 2 -9 4 -18 5 -21 1 -3 2 -8 2 -11 -1 -4 3 -21 8 -39
5 -18 12 -52 15 -74 15 -105 46 -274 56 -306 6 -19 12 -42 14 -50 11 -58 52
-107 96 -115 33 -7 242 59 384 120 71 31 513 203 545 213 79 23 88 23 110 0
21 -23 100 -180 104 -208 2 -11 82 -193 109 -249 41 -82 61 -78 254 50 57 38
108 69 113 69 5 0 10 5 12 11 4 11 49 14 83 6 103 -25 119 -30 390 -117 72
-23 137 -43 145 -45 8 -2 27 -6 43 -10 17 -5 27 -3 27 4 0 10 -68 46 -135 72
-96 37 -368 137 -380 139 -3 0 -10 3 -17 5 -47 17 -138 30 -165 25 -34 -8
-143 -69 -143 -81 0 -4 -13 -12 -30 -19 -16 -7 -30 -16 -30 -20 0 -5 -13 -13
-30 -18 -36 -13 -48 -3 -72 54 -9 21 -37 91 -64 154 -57 138 -112 222 -177
266 -60 41 -88 39 -242 -21 -38 -15 -74 -28 -80 -29 -5 -2 -23 -8 -38 -14 -16
-7 -30 -12 -32 -12 -2 0 -16 -5 -32 -12 -15 -6 -30 -12 -33 -13 -3 -1 -18 -7
-35 -14 -16 -7 -34 -14 -40 -15 -5 -1 -26 -9 -45 -18 -59 -25 -283 -106 -315
-114 -16 -4 -34 -9 -40 -13 -5 -3 -29 -7 -52 -8 l-42 -4 -15 53 c-13 46 -45
204 -51 248 -1 8 -5 29 -8 45 -4 17 -9 41 -12 54 -2 13 -12 49 -21 80 -10 31
-18 61 -20 66 -1 6 -8 24 -15 40 -7 17 -13 32 -13 35 -1 3 -11 22 -24 42 -26
41 -78 78 -111 78 -54 0 -204 -86 -556 -319 -121 -80 -224 -148 -230 -150 -5
-2 -12 -7 -15 -10 -5 -6 -238 -158 -335 -219 -65 -40 -157 -82 -166 -76 -17
10 -7 65 68 384 62 266 60 258 73 323 5 27 12 52 14 56 3 4 8 30 11 57 4 27
11 67 15 89 33 154 31 275 -5 305 -27 23 -115 29 -220 17 -95 -12 -385 -75
-436 -95 -15 -6 -29 -8 -32 -5 -3 3 -12 1 -19 -3 -7 -5 -17 -9 -23 -11 -5 -1
-21 -4 -34 -7 -13 -3 -47 -12 -75 -20 -28 -8 -64 -17 -81 -20 -16 -3 -41 -10
-55 -15 -33 -12 -83 -25 -92 -23 -4 1 -18 -2 -32 -7 -64 -25 -164 -30 -176
-10 -9 13 -5 150 4 197 3 15 8 58 11 96 7 108 10 112 49 70 28 -31 40 -37 75
-37 44 0 67 15 160 102 45 43 58 50 80 44 21 -5 150 -90 171 -113 14 -15 87
-46 100 -43 16 4 70 75 70 92 0 6 5 11 11 11 5 0 8 3 5 8 -2 4 8 25 23 47 39
58 144 95 278 98 12 1 20 4 17 9 -5 7 -186 4 -214 -4 -50 -16 -74 -33 -112
-84 -66 -87 -96 -116 -112 -107 -14 8 -74 57 -118 95 -32 28 -93 58 -119 58
-35 0 -81 -27 -144 -85 -33 -31 -67 -54 -75 -53 -30 6 -120 147 -134 210 -5
20 -19 34 -49 49 -23 12 -43 21 -44 20 -2 0 -4 -1 -5 0 -22 6 -89 10 -203 13
-134 3 -185 13 -200 35 -20 33 -34 264 -17 275 6 4 35 0 64 -8 29 -9 67 -18
83 -21 45 -7 75 -14 93 -19 17 -5 82 -15 132 -21 14 -2 54 -7 90 -12 128 -16
540 -9 648 12 9 1 37 6 62 9 48 6 48 7 155 30 73 16 228 59 258 71 15 6 17 1
18 -41 1 -27 3 -58 4 -69 2 -11 6 -42 9 -70 8 -68 44 -137 80 -154 28 -13 90
-16 131 -7 11 3 47 12 81 20 89 22 110 25 120 18 21 -15 55 -73 94 -163 23
-52 50 -112 60 -134 10 -22 33 -79 52 -126 46 -115 52 -106 -145 -234 -31 -20
-61 -44 -66 -53 -11 -19 6 -71 29 -92 8 -8 33 -37 55 -64 36 -45 39 -53 39
-110 0 -33 -3 -72 -7 -86 -3 -14 -9 -41 -13 -60 -4 -19 -11 -44 -17 -55 -8
-18 -8 -19 7 -5 24 23 65 152 67 209 2 44 -4 60 -43 124 -64 104 -65 110 -25
141 19 14 39 26 46 26 16 0 111 67 139 98 29 33 29 82 -2 158 l-24 59 41 21
c54 26 91 47 97 55 15 19 93 50 127 50 48 1 126 -17 164 -37 16 -8 29 -12 29
-9 0 4 14 -1 30 -9 17 -9 43 -23 59 -31 38 -19 46 -19 26 1 -28 28 -82 62
-143 90 -31 14 -66 30 -77 35 -45 22 -118 13 -210 -26 -122 -51 -141 -55 -159
-42 -8 7 -29 52 -46 102 -17 49 -40 109 -51 131 -19 40 -71 103 -87 105 -4 0
-16 3 -27 5 -42 11 -78 7 -185 -17 -111 -26 -115 -24 -125 51 -4 30 -9 57 -11
59 -2 2 1 10 7 18 6 7 8 13 3 13 -5 0 -9 34 -8 76 l0 77 45 21 c24 12 48 22
52 23 13 2 144 58 266 113 62 28 115 49 118 46 3 -2 7 -28 9 -58 9 -99 26
-151 57 -165 27 -12 97 -9 147 6 19 6 49 11 67 11 36 0 50 -19 103 -143 19
-42 42 -86 52 -96 22 -25 48 -18 141 37 69 40 71 41 152 27 12 -1 52 -17 90
-34 55 -25 65 -27 51 -12 -16 18 -116 72 -141 77 -70 14 -78 13 -162 -21 -80
-32 -88 -34 -104 -19 -10 9 -17 19 -17 23 3 10 -33 115 -48 139 -14 21 -12 24
19 25 14 0 61 -17 97 -37 14 -7 37 -16 52 -20 23 -5 30 -2 42 21 7 16 19 47
25 70 13 47 39 70 114 97 60 23 55 31 -9 15 -50 -12 -109 -46 -114 -64 -7 -28
-22 -60 -39 -80 -16 -21 -20 -22 -42 -10 -80 45 -131 61 -155 47 -12 -7 -27
-5 -50 4 -33 14 -84 12 -144 -6 -84 -25 -91 -16 -95 123 -2 88 1 107 18 107
10 0 468 229 677 339 63 33 171 88 240 123 69 35 127 66 128 71 2 4 9 7 16 7
7 0 34 11 62 24 58 29 153 72 244 111 36 15 79 33 95 41 43 18 89 37 95 39 3
0 54 20 113 43 60 23 139 52 175 63 37 12 73 27 81 33 8 6 16 10 18 9 1 -2 4
-3 6 -2 1 0 10 2 19 4 10 2 37 10 60 19 38 13 175 55 203 62 6 1 45 12 87 24
43 11 88 23 100 26 39 9 53 12 53 14 0 1 7 3 15 5 8 1 76 16 150 33 120 26
254 52 348 67 68 11 98 15 122 20 24 4 78 11 170 21 25 2 56 7 70 9 14 3 69 7
122 11 54 3 106 7 115 9 10 2 39 4 66 4 80 2 52 16 -41 20 -212 10 -521 -2
-662 -25 -19 -4 -51 -8 -70 -9 -35 -3 -54 -6 -159 -25 -30 -6 -56 -8 -58 -6
-2 2 -25 -3 -50 -10 -26 -8 -50 -11 -53 -7 -4 5 -21 51 -39 103 -74 216 -203
438 -337 578 -41 42 -74 78 -74 80 0 4 95 132 113 152 27 31 167 249 181 281
12 30 12 37 0 54 -8 11 -20 20 -27 20 -14 0 -22 54 -10 66 5 5 31 0 59 -11
211 -80 470 -97 649 -42 39 12 138 54 145 62 3 3 23 14 45 25 22 11 42 22 45
26 3 3 23 16 45 29 139 83 412 329 486 436 32 47 37 75 14 94 -22 19 -57 6
-186 -71 -65 -38 -122 -69 -128 -69 -5 0 -11 -3 -13 -7 -2 -7 -90 -53 -108
-58 -3 -1 -18 -7 -35 -15 -78 -34 -98 -42 -109 -44 -6 -2 -29 -8 -51 -14 -22
-6 -44 -12 -50 -13 -5 -1 -20 -5 -32 -10 -54 -20 -242 -30 -333 -16 -119 17
-215 55 -318 125 -51 35 -53 38 -49 75 7 61 -33 132 -92 161 -51 26 -109 27
-123 2 -11 -19 -39 -21 -56 -4 -7 7 -12 9 -12 5 0 -3 -12 -2 -27 4 -48 18
-105 24 -235 24 -70 0 -121 3 -114 7 8 4 19 21 25 37 10 24 21 30 61 38 27 6
53 7 57 2 20 -18 115 -41 182 -44 81 -3 165 18 228 56 52 30 134 116 158 164
11 22 25 43 30 47 6 4 7 8 3 8 -3 0 0 20 7 44 13 41 14 171 3 206 -3 8 -9 30
-13 48 -4 18 -12 35 -16 38 -5 3 -9 24 -9 47 0 59 -17 111 -47 147 -30 36 -79
64 -99 56 -8 -3 -22 4 -32 15 -84 101 -336 98 -494 -7 -110 -73 -197 -198
-223 -325 -18 -87 -12 -222 13 -303 13 -38 27 -75 32 -81 7 -9 3 -17 -16 -29
-14 -10 -31 -30 -37 -45 -7 -15 -29 -42 -49 -60 -24 -21 -40 -45 -44 -67 -5
-25 -13 -36 -30 -40 -31 -8 -62 -47 -70 -90 -3 -19 -10 -34 -15 -34 -16 0 -59
-51 -65 -78 -4 -15 -19 -41 -35 -57 -16 -17 -30 -45 -32 -63 -2 -18 -14 -43
-26 -56 -12 -13 -25 -41 -28 -62 -3 -21 -14 -51 -24 -66 -11 -14 -19 -43 -19
-65 0 -29 -7 -47 -29 -70 -28 -31 -48 -74 -57 -123 -4 -21 -45 -122 -100 -245
-15 -35 -84 -240 -90 -270 -16 -81 -24 -126 -29 -164 -4 -24 -22 -90 -41 -148
-34 -101 -39 -118 -50 -173 -3 -14 -9 -42 -15 -63 -6 -21 -12 -50 -14 -65 -2
-15 -8 -52 -14 -82 -6 -30 -13 -75 -16 -100 -3 -25 -8 -61 -10 -80 -14 -98
-17 -172 -25 -511 0 -10 -17 -24 -37 -33 -21 -9 -61 -29 -89 -44 -28 -15 -120
-60 -205 -101 -205 -98 -212 -101 -214 -101 -1 0 -1 22 -1 50 1 27 3 50 6 50
3 0 5 21 6 48 1 50 13 201 19 242 2 14 7 63 10 110 3 47 8 101 10 120 2 19 6
75 10 124 4 49 8 96 10 105 1 9 6 57 10 106 4 50 9 108 11 130 2 22 6 73 9
114 2 41 7 91 9 110 3 20 8 65 11 101 14 157 28 195 77 202 15 3 28 1 28 -4 0
-4 3 -7 8 -7 21 4 38 -6 111 -66 86 -70 118 -81 182 -64 51 13 65 31 49 68
-12 30 -123 146 -156 164 -11 6 -23 16 -27 24 -4 7 -15 13 -22 13 -8 0 -15 3
-15 8 0 4 -10 12 -22 17 -19 8 -22 17 -20 46 3 32 -28 122 -47 139 -4 3 -13
19 -21 35 -8 17 -17 32 -20 35 -3 3 -27 39 -55 80 -49 74 -244 336 -294 396
-14 17 -40 49 -58 70 -17 21 -39 49 -50 60 -10 12 -36 43 -58 70 -22 26 -74
83 -115 127 -70 74 -84 84 -215 147 -148 72 -271 122 -344 140 -41 11 -235 14
-291 6 -14 -2 -47 -7 -75 -11 -27 -4 -53 -9 -56 -11 -3 -2 -21 -6 -40 -9 -59
-10 -211 -66 -294 -107 -243 -121 -391 -271 -515 -523 -19 -38 -39 -73 -45
-77 -5 -4 -7 -8 -4 -8 4 0 -10 -39 -31 -87 -21 -49 -44 -118 -53 -156 -14 -63
-14 -69 3 -89 17 -22 19 -22 52 -7 77 37 282 223 496 451 30 32 73 61 145 96
94 46 255 107 263 99 2 -1 -44 -81 -101 -177 -58 -96 -110 -184 -116 -195 -7
-11 -11 -22 -10 -24 2 -2 -1 -7 -6 -10 -4 -3 -14 -17 -21 -30 -8 -13 -23 -40
-34 -60 -22 -38 -166 -318 -168 -326 -1 -7 -29 -76 -40 -100 -27 -61 -30 -174
-6 -253 3 -9 7 -28 10 -42 2 -14 10 -45 17 -70 7 -25 13 -49 15 -55 1 -5 14
-44 29 -85 14 -41 28 -82 29 -90 2 -8 27 -76 56 -150 28 -74 52 -142 53 -150
2 -8 10 -31 18 -50 8 -19 21 -55 29 -80 7 -25 17 -50 21 -55 8 -11 25 -94 22
-106 -1 -3 -5 -73 -8 -155 -3 -82 -8 -185 -10 -229 -3 -44 -7 -132 -10 -195
-6 -139 -16 -326 -18 -360 -2 -25 -3 -25 -82 -23 -95 1 -246 11 -250 15 -2 2
-67 100 -145 218 -78 118 -146 217 -151 218 -5 2 -9 8 -9 12 0 5 -31 53 -68
107 -38 54 -93 134 -124 178 -30 44 -75 108 -99 143 -24 35 -49 72 -55 83 -6
10 -18 27 -27 37 -10 10 -17 23 -17 29 0 6 -7 16 -16 24 -8 7 -24 29 -35 48
-26 49 -41 71 -61 95 -10 11 -18 25 -18 32 0 7 -4 14 -8 16 -17 7 -181 293
-267 466 -123 248 -243 560 -285 748 -7 27 -13 56 -15 64 -16 60 -35 142 -40
166 -10 51 -26 138 -30 173 -3 19 -8 48 -11 65 -3 17 -7 47 -9 66 -2 19 -6 55
-10 80 -13 90 -28 320 -22 320 3 0 38 -14 77 -31 40 -17 80 -32 89 -34 9 -2
43 -11 76 -20 33 -9 74 -18 90 -20 17 -2 53 -7 80 -12 90 -14 387 -6 455 12 8
2 35 7 60 10 25 4 79 16 120 27 41 11 82 21 90 23 8 2 29 9 45 15 17 6 37 13
46 15 26 5 193 78 199 86 3 4 17 10 31 14 27 7 59 51 59 82 0 11 -9 28 -21 39
-19 17 -44 18 -332 21 -397 3 -514 8 -656 28 -79 12 -202 51 -213 69 -4 6 -8
8 -8 3 0 -8 -45 19 -74 45 -11 10 -23 18 -26 18 -4 0 -26 26 -49 58 -41 54
-67 103 -106 198 -19 47 -52 68 -105 66 -19 0 -72 -1 -117 -3 -101 -3 -141 14
-248 103 -11 9 -30 25 -43 35 l-22 18 26 55 c14 30 27 56 29 58 2 2 19 -11 38
-30 113 -114 307 -155 447 -96 76 32 100 48 153 100 65 64 113 157 123 235 3
26 7 49 9 51 2 2 0 15 -6 29 -5 14 -5 22 0 19 14 -9 -16 109 -40 156 -11 22
-22 64 -23 93 -8 169 -222 276 -438 219 -27 -7 -48 -11 -48 -9 0 6 -70 -24
-145 -62 -103 -52 -216 -150 -310 -268 -22 -27 -43 -52 -46 -55 -14 -13 -120
-180 -143 -227 -15 -29 -30 -53 -34 -53 -10 0 -153 216 -159 241 -3 11 -9 19
-14 19 -5 0 -9 4 -9 10 0 5 -14 33 -31 62 -17 29 -32 58 -33 63 -1 6 -9 21
-18 35 -15 23 -58 111 -211 430 -61 129 -79 150 -122 146 -52 -6 -65 -36 -60
-134 6 -130 23 -273 42 -357 2 -11 8 -40 13 -65 31 -162 98 -365 171 -517 23
-48 43 -90 43 -93 1 -3 9 -16 17 -30 9 -14 31 -50 49 -80 58 -94 175 -241 280
-350 55 -57 102 -112 105 -121 6 -18 -13 -71 -69 -192 -19 -42 -36 -81 -37
-85 -1 -4 -19 -41 -40 -84 -22 -42 -39 -79 -39 -81 0 -3 -5 -18 -11 -34 -6
-15 -10 -29 -10 -30 0 -2 -8 -22 -18 -46 -29 -68 -60 -190 -67 -265 -12 -127
23 -219 176 -466 106 -171 164 -291 180 -371 20 -99 18 -305 -4 -438 -3 -17
-8 -45 -11 -62 -9 -52 -57 -195 -66 -195 -4 0 -16 14 -26 30 -9 17 -20 30 -23
30 -4 0 -22 21 -40 48 -19 26 -37 49 -40 52 -5 4 -53 64 -97 120 -18 22 -169
207 -217 265 -69 83 -111 130 -118 133 -5 2 -8 8 -8 13 0 5 -15 24 -32 42 -18
19 -54 59 -80 89 -133 155 -364 386 -473 473 -27 22 -52 43 -55 46 -12 16
-194 128 -266 164 -43 22 -80 43 -82 48 -2 4 -11 7 -21 7 -9 0 -21 4 -26 9
-20 19 -320 131 -423 157 -10 3 -6 18 15 56 15 29 32 56 36 59 5 3 8 9 7 13
-1 3 8 30 19 60 32 87 52 205 53 312 0 55 -2 109 -5 120 -4 10 -9 35 -12 54
-9 56 -45 167 -69 213 -12 23 -26 51 -30 62 -6 17 -3 16 20 -5 26 -25 49 -69
78 -152 141 -406 171 -482 213 -550 37 -60 58 -69 149 -63 100 6 146 13 177
24 14 6 27 7 30 4 3 -3 12 -1 19 3 7 5 15 9 18 10 19 3 68 28 82 41 10 9 18
30 17 47 0 48 -26 64 -241 146 -32 12 -58 25 -59 29 0 3 -2 15 -5 26 -2 11 -7
37 -10 58 -7 48 -12 72 -14 72 -1 0 -3 14 -5 30 -3 29 -11 90 -21 150 -3 17
-8 39 -11 50 -3 11 -7 29 -9 40 -5 42 -48 190 -56 193 -4 2 -8 11 -8 20 0 35
-66 124 -116 157 -72 48 -185 103 -277 135 -43 15 -81 31 -84 34 -4 3 -15 6
-25 6 -15 0 -17 6 -12 37 3 20 9 46 14 57 4 12 8 24 9 29 0 4 1 8 2 10 0 1 2
9 4 17 2 8 28 94 60 190 70 219 71 235 20 292 -22 24 -49 49 -60 55 -89 48
-171 86 -190 88 -5 0 -15 4 -21 7 -21 14 -71 20 -171 22 -57 1 -104 4 -107 7
-2 2 -7 38 -10 81 -3 42 -10 87 -15 101 -5 14 -7 27 -5 30 7 6 -59 57 -74 57
-7 0 -12 5 -12 10 0 6 -6 10 -14 10 -7 0 -25 9 -38 20 -14 10 -28 17 -31 14
-3 -3 -11 5 -18 17 -15 29 -35 49 -47 49 -6 0 -12 4 -14 8 -1 5 -48 25 -103
47 -55 21 -120 46 -144 57 -52 21 -138 32 -166 19z m95 -65 c60 -19 279 -105
301 -119 10 -6 22 -21 28 -34 6 -13 19 -27 28 -31 10 -4 48 -24 85 -45 74 -42
72 -38 87 -176 8 -75 7 -77 -33 -83 -17 -3 -19 6 -22 82 -4 103 -14 119 -104
168 -45 25 -79 36 -115 38 -29 1 -81 15 -125 34 -41 17 -82 33 -90 35 -35 7
-130 60 -130 72 0 7 -4 13 -10 13 -13 0 0 32 19 47 20 16 27 16 81 -1z m2574
-458 c-3 -4 0 -8 5 -8 6 0 11 -5 11 -11 0 -15 260 -539 310 -624 22 -38 43
-78 46 -87 4 -10 10 -18 15 -18 5 0 9 -5 9 -11 0 -12 114 -180 152 -225 99
-116 210 -188 270 -175 71 15 110 2 198 -69 36 -29 88 -64 115 -78 46 -25 60
-27 177 -27 72 0 131 -4 135 -10 5 -5 20 -37 33 -70 90 -226 255 -340 550
-381 94 -12 249 -18 542 -18 186 -1 338 -4 338 -9 0 -13 -225 -109 -286 -121
-11 -3 -31 -9 -45 -14 -47 -19 -273 -62 -355 -68 -101 -8 -226 -8 -284 0 -102
14 -117 16 -170 27 -30 6 -59 14 -65 17 -5 4 -18 8 -28 9 -10 2 -33 10 -52 18
-20 8 -38 14 -40 15 -3 0 -33 15 -68 34 -60 31 -65 33 -85 17 -19 -15 -20 -24
-17 -113 3 -103 12 -195 30 -338 3 -25 8 -63 11 -85 13 -110 47 -282 89 -445
5 -22 25 -103 29 -121 11 -45 99 -296 134 -384 83 -205 192 -428 292 -595 34
-58 70 -118 80 -135 22 -39 183 -289 190 -295 3 -3 39 -54 79 -115 41 -60 93
-136 115 -168 23 -33 46 -66 51 -75 6 -10 12 -19 15 -22 18 -16 278 -401 363
-536 l26 -42 -37 8 c-20 5 -53 11 -72 14 -19 3 -46 8 -60 11 -14 3 -36 8 -49
11 -97 20 -370 106 -456 144 -22 9 -69 30 -105 45 -116 49 -322 157 -458 239
-74 45 -141 86 -150 91 -9 6 -50 33 -91 60 -40 28 -81 55 -89 60 -9 6 -21 13
-26 18 -6 4 -81 58 -166 119 -228 165 -228 165 -350 318 -45 58 -86 107 -90
110 -21 16 -38 55 -31 69 21 40 71 202 77 251 2 14 5 39 9 56 17 94 22 270 11
388 -12 122 -50 210 -195 449 -190 312 -200 349 -147 562 16 64 81 231 139
355 19 41 44 98 57 125 12 28 29 64 37 81 8 18 20 55 28 84 19 72 9 93 -110
214 -127 131 -275 316 -275 346 0 5 -4 10 -8 10 -7 0 -123 224 -145 280 -5 14
-16 37 -24 52 -7 15 -13 30 -13 33 0 3 -9 36 -20 73 -12 37 -23 74 -25 82 -2
8 -12 49 -23 90 -11 41 -20 82 -20 90 -1 8 -5 35 -11 60 -5 25 -12 65 -15 90
-3 25 -8 54 -10 65 -2 11 -7 56 -11 100 -8 97 -8 85 -6 115 1 19 3 22 10 10 6
-8 7 -18 5 -22z m-1759 -81 c79 -20 174 -62 230 -101 38 -26 75 -64 75 -76 0
-5 -25 -87 -56 -182 -31 -95 -62 -198 -70 -228 -8 -30 -17 -64 -19 -75 -10
-37 -7 -95 4 -109 7 -8 44 -24 84 -36 123 -37 266 -103 340 -156 66 -48 109
-141 143 -307 2 -10 5 -26 8 -35 6 -21 17 -76 21 -117 2 -16 7 -41 10 -55 3
-14 7 -38 9 -55 24 -168 37 -215 68 -234 11 -7 63 -28 115 -47 52 -19 107 -40
121 -48 l26 -14 -36 -15 c-50 -21 -190 -44 -258 -43 l-55 1 -29 53 c-25 47
-122 301 -131 342 -6 28 -92 255 -109 289 -25 47 -59 75 -143 117 -40 21 -97
61 -130 93 -77 73 -98 90 -159 128 -55 33 -183 92 -216 98 -11 2 -27 6 -36 9
-40 12 -87 19 -198 28 -7 1 -8 15 -3 42 4 23 10 62 13 88 4 26 8 53 11 60 2 7
6 29 9 48 3 19 13 62 22 95 24 93 27 124 14 140 -26 31 -99 12 -165 -43 -75
-62 -104 -136 -105 -265 0 -77 2 -104 16 -202 3 -22 7 -58 10 -80 2 -22 6 -53
9 -69 l4 -30 -24 30 c-64 80 -132 216 -156 317 -50 208 129 494 376 600 105
45 274 66 360 44z m-399 -379 c-7 -25 -26 -103 -30 -128 -3 -14 -9 -47 -14
-75 -5 -27 -10 -57 -10 -65 -1 -8 -4 -31 -8 -50 -3 -19 -6 -43 -6 -53 1 -22
-25 -34 -41 -18 -15 15 -17 32 -18 137 -1 123 12 167 67 220 44 44 67 56 60
32z m3873 -111 c80 -186 5 -394 -175 -483 -83 -41 -162 -49 -253 -26 -58 15
-84 28 -149 80 -59 47 -67 65 -45 105 10 17 21 34 26 35 4 2 7 10 7 18 0 8 5
14 10 14 6 0 10 4 10 10 0 24 130 159 180 186 19 10 37 22 40 25 13 15 130 45
210 54 56 6 91 13 98 20 13 12 24 2 41 -38z m-3785 -741 c56 -8 160 -69 217
-126 56 -56 117 -162 123 -211 1 -14 5 -29 8 -34 2 -6 4 -46 2 -90 -2 -90 -36
-194 -81 -254 -37 -48 -101 -111 -113 -111 -5 0 -10 -4 -10 -8 0 -11 8 -10
-195 -12 -93 -1 -192 -6 -218 -10 -43 -6 -53 -4 -94 22 -127 81 -216 250 -206
393 2 28 4 57 4 65 6 106 122 274 228 329 107 54 196 67 335 47z m9432 -206
c3 -86 -21 -173 -64 -229 -36 -49 -92 -100 -117 -107 -11 -4 -28 -13 -37 -22
-10 -8 -18 -12 -18 -8 0 4 -10 2 -21 -5 -42 -22 -229 -15 -229 10 0 3 19 15
42 26 23 11 46 24 52 30 6 5 29 23 51 39 85 63 194 184 273 303 55 85 64 80
68 -37z m-3303 -442 c73 -22 170 -64 314 -136 140 -69 140 -69 466 -466 18
-21 34 -44 36 -50 2 -6 10 -15 16 -21 14 -12 149 -191 195 -260 18 -27 37 -52
40 -55 4 -3 15 -21 25 -40 10 -19 21 -37 25 -40 4 -3 19 -26 34 -52 28 -48 23
-63 -10 -30 -9 9 -31 27 -47 39 -16 12 -68 57 -115 100 -46 43 -116 107 -155
143 -39 36 -81 74 -92 85 -23 21 -125 110 -164 141 -13 10 -28 24 -35 29 -6 6
-36 27 -66 47 -63 41 -116 59 -145 48 -21 -8 -92 -81 -135 -139 -14 -18 -35
-46 -47 -61 -13 -15 -23 -33 -23 -38 0 -6 -6 -17 -13 -24 -35 -35 -184 -319
-227 -433 -12 -33 -26 -67 -30 -75 -4 -8 -6 -22 -4 -30 12 -62 16 -76 25 -85
5 -5 9 -15 9 -22 0 -15 25 -69 188 -403 69 -140 132 -277 142 -303 33 -92 14
-756 -31 -1057 -5 -36 -11 -75 -13 -88 -2 -12 -5 -24 -7 -26 -8 -8 -212 -56
-217 -51 -5 5 -3 305 3 395 2 30 6 107 10 170 3 63 8 144 11 180 14 188 15
301 4 337 -36 112 -171 347 -247 429 -49 54 -70 65 -100 51 -21 -9 -42 -56
-35 -79 1 -4 5 -31 8 -60 4 -29 9 -57 12 -62 3 -5 9 -28 14 -50 10 -47 16 -69
56 -224 16 -63 28 -128 27 -145 -2 -18 -5 -70 -9 -117 -3 -47 -9 -130 -12
-185 -3 -55 -8 -120 -9 -145 -2 -25 -6 -83 -9 -130 -4 -47 -9 -107 -11 -135
-3 -27 -7 -75 -10 -105 -10 -120 -16 -165 -23 -172 -7 -7 -132 -19 -227 -22
l-30 -1 1 70 c1 39 5 138 9 220 10 202 12 240 20 460 4 105 8 210 9 235 1 25
-5 63 -15 85 -10 22 -30 74 -44 115 -15 41 -29 82 -32 90 -4 8 -7 17 -8 20 -1
3 -5 12 -8 20 -30 70 -150 422 -173 510 -24 86 -24 90 -31 175 -5 69 -2 88 17
135 57 140 310 619 332 628 4 2 8 7 8 12 0 5 38 72 85 149 86 142 101 177 88
197 -12 17 -49 34 -57 26 -4 -3 -17 -7 -29 -7 -60 -3 -182 -48 -337 -123 -41
-20 -96 -68 -220 -193 -161 -162 -318 -305 -326 -297 -15 15 145 353 217 459
110 163 313 309 533 384 44 15 87 28 95 30 9 2 39 8 66 15 28 6 68 14 90 17
22 3 41 7 43 8 2 2 58 3 125 2 88 0 138 -6 180 -19z m2887 -123 c14 -3 30 -7
35 -9 37 -9 67 -21 114 -44 l53 -27 -7 -60 c-8 -65 -8 -68 -19 -135 -4 -25 -9
-57 -12 -72 -2 -16 -7 -43 -10 -60 -3 -18 -7 -44 -9 -58 -17 -106 -55 -230
-71 -231 -16 -2 -32 -5 -39 -9 -3 -1 -9 -4 -15 -5 -5 -1 -11 -3 -12 -5 -15
-11 -202 -47 -261 -49 -66 -2 -172 14 -192 29 -5 4 -21 11 -34 15 -34 10 -131
69 -167 102 -39 34 -37 64 6 105 17 15 30 34 31 41 3 43 7 59 21 70 25 20 48
60 48 83 0 12 7 25 15 28 16 6 48 69 48 94 0 6 3 12 7 12 16 0 59 53 65 79 8
36 78 102 118 111 37 8 250 5 287 -5z m1594 -183 c-39 -37 -94 -87 -123 -112
-29 -25 -58 -50 -64 -55 -7 -6 -28 -22 -47 -35 -19 -13 -37 -27 -40 -31 -4 -5
-33 -24 -111 -74 -85 -53 -220 -112 -283 -123 -54 -9 -302 -8 -346 1 -127 28
-270 75 -270 90 0 7 9 66 20 132 12 66 21 130 22 142 2 21 4 22 26 7 63 -41
121 -72 126 -67 3 4 6 1 6 -5 0 -7 3 -11 8 -10 4 1 21 -4 37 -11 130 -54 320
-68 485 -36 14 3 41 8 60 11 19 4 40 9 45 13 6 3 16 6 24 8 31 4 177 58 192
70 8 7 20 13 25 13 9 0 110 52 224 114 25 14 47 25 50 25 3 1 -27 -30 -66 -67z
m-4029 -335 c67 -49 163 -128 210 -172 11 -11 63 -58 115 -105 51 -47 118
-107 148 -135 30 -27 65 -59 79 -70 14 -11 38 -32 54 -47 15 -16 32 -28 38
-28 6 0 11 -4 11 -10 0 -5 -8 -10 -18 -10 -44 0 -121 -51 -155 -103 -38 -58
-42 -75 -62 -317 -8 -95 -15 -169 -20 -220 -5 -51 -16 -168 -20 -220 -4 -61
-16 -184 -20 -220 -2 -19 -7 -71 -11 -115 -3 -44 -7 -96 -9 -115 -4 -38 -14
-148 -20 -220 -4 -43 -8 -88 -21 -230 -3 -36 -7 -76 -9 -90 -2 -14 -3 -30 -4
-35 -1 -6 -29 -21 -63 -33 -35 -13 -72 -27 -83 -32 -31 -13 -69 -24 -77 -22
-5 1 -8 -3 -8 -10 0 -6 -3 -9 -6 -5 -3 3 -31 -3 -62 -15 -30 -11 -76 -26 -101
-34 -25 -7 -60 -17 -77 -22 l-31 -10 13 74 c29 163 47 482 48 839 1 232 0 242
-23 290 -22 47 -102 213 -249 515 -36 74 -66 137 -67 140 -1 3 -7 19 -14 35
-27 63 -28 79 -9 130 24 62 65 155 77 175 5 8 29 53 53 100 56 110 184 302
241 362 31 32 51 45 63 42 11 -3 51 -28 89 -57z m-6835 -102 c0 -2 -10 -9 -22
-15 -22 -11 -22 -10 -4 4 21 17 26 19 26 11z m-50 -19 c0 -2 -13 -9 -30 -15
-35 -12 -41 -5 -7 9 25 10 37 12 37 6z m-70 -26 c0 -5 -7 -10 -15 -10 -12 0
-143 -61 -215 -101 -111 -62 -276 -204 -369 -319 -20 -25 -38 -47 -41 -50 -14
-14 -88 -118 -100 -140 -7 -14 -16 -27 -19 -30 -16 -13 -154 -280 -145 -280 2
0 -2 -13 -11 -29 -37 -73 -86 -260 -102 -391 -9 -73 -9 -291 1 -360 4 -30 8
-65 9 -77 0 -13 5 -23 10 -23 4 0 6 -4 2 -9 -8 -13 41 -163 82 -251 48 -103
97 -173 174 -252 37 -38 64 -68 60 -68 -10 0 -83 51 -120 85 -47 42 -111 128
-154 206 -36 65 -85 185 -91 224 -2 11 -6 27 -9 35 -3 8 -8 31 -11 50 -3 19
-8 46 -10 60 -12 64 -21 200 -16 235 1 6 2 30 1 55 0 45 25 222 36 250 3 8 7
24 9 35 6 43 57 191 91 264 20 42 37 78 37 81 1 3 19 36 41 74 22 37 44 77 50
87 5 10 13 19 17 19 5 0 8 6 8 13 0 6 9 23 20 37 11 14 34 43 51 65 90 118
171 205 190 205 5 0 7 5 4 10 -3 6 -3 10 2 10 4 0 26 16 48 36 88 77 220 157
370 221 108 46 115 48 115 33z m7703 -508 c7 -6 14 -10 17 -9 13 3 123 -79
178 -133 47 -45 59 -62 47 -66 -26 -10 -58 4 -105 46 -25 22 -50 44 -57 50
-35 29 -99 54 -137 51 -22 -1 -43 -6 -46 -10 -3 -4 -13 -10 -22 -14 -39 -14
-62 -89 -74 -237 -2 -36 -7 -81 -9 -100 -2 -19 -7 -71 -10 -115 -4 -44 -8 -97
-10 -117 -2 -20 -7 -72 -10 -115 -4 -43 -8 -94 -10 -113 -17 -172 -22 -225
-30 -340 -3 -47 -8 -101 -11 -120 -3 -19 -7 -64 -9 -100 -3 -36 -7 -87 -10
-115 -2 -27 -7 -84 -11 -125 -3 -41 -7 -76 -8 -77 -7 -8 -77 -32 -73 -26 3 4
8 46 12 93 3 47 8 101 10 120 3 19 7 71 10 115 3 44 7 94 10 110 2 17 7 68 10
115 4 47 9 101 11 120 2 19 6 62 9 95 3 33 7 83 10 110 2 28 7 84 10 125 3 41
8 86 10 100 4 24 12 119 20 225 2 28 4 50 5 50 1 0 3 25 5 55 20 278 30 306
120 355 32 17 126 15 148 -3z m1760 -147 c50 -54 130 -162 163 -220 79 -143
128 -252 163 -365 17 -54 17 -60 2 -64 -13 -4 -54 -13 -96 -22 -5 -1 -66 -16
-135 -34 -69 -17 -132 -33 -140 -35 -57 -14 -265 -79 -365 -114 -66 -23 -124
-43 -130 -45 -5 -2 -17 -6 -25 -9 -8 -4 -58 -23 -110 -43 -52 -20 -106 -41
-120 -46 -14 -6 -34 -13 -44 -15 -11 -2 -27 -10 -36 -18 -9 -8 -21 -15 -27
-15 -6 0 -32 -10 -59 -22 -27 -12 -51 -23 -54 -23 -3 -1 -27 -12 -55 -25 -27
-13 -52 -25 -55 -25 -3 -1 -25 -12 -50 -25 -25 -13 -47 -24 -50 -25 -3 0 -42
-19 -87 -42 -69 -35 -82 -39 -85 -25 -9 34 4 348 18 437 5 33 9 61 18 145 4
30 11 71 16 90 5 19 11 51 14 70 17 109 76 288 76 231 0 -14 56 -71 70 -71 4
0 29 -10 56 -22 27 -12 51 -23 54 -23 8 -1 84 -18 100 -22 27 -6 145 -6 190 1
42 7 65 13 115 32 11 4 29 9 39 11 11 2 27 9 35 16 9 7 34 21 56 32 40 20 170
111 204 143 9 9 42 40 72 68 30 28 83 83 118 122 l65 72 25 -23 c14 -12 38
-35 54 -52z m-8373 -174 c78 -55 270 -243 270 -265 0 -3 12 -22 26 -43 29 -43
65 -118 87 -184 56 -164 43 -390 -32 -577 -40 -101 -145 -275 -196 -326 -8 -8
-15 -17 -15 -19 0 -18 -263 -287 -325 -333 -22 -16 -44 -35 -48 -41 -4 -7 -14
-13 -22 -13 -7 0 -15 -4 -17 -8 -4 -11 -81 -62 -138 -93 -25 -13 -47 -26 -50
-29 -18 -18 -250 -110 -275 -110 -5 0 31 18 81 38 92 39 304 160 304 174 0 5
5 8 11 8 6 0 16 6 23 13 7 6 27 23 45 37 35 26 61 49 131 115 310 293 492 618
495 882 0 29 4 53 8 53 5 0 6 4 3 8 -3 4 -7 33 -10 63 -6 60 -18 121 -31 169
-18 60 -66 157 -119 235 -47 71 -73 101 -145 169 -30 28 -63 59 -73 69 -10 9
-22 17 -28 17 -5 0 -10 3 -10 8 0 4 -25 22 -55 40 -30 18 -55 35 -55 38 0 8
89 -45 160 -95z m-942 -152 c-164 -87 -342 -310 -374 -470 -8 -40 -9 -114 -1
-149 23 -112 18 -126 -27 -67 -57 75 -56 206 2 327 24 50 40 77 82 134 40 55
171 174 215 196 28 14 52 27 55 31 6 6 100 38 115 38 6 0 -25 -18 -67 -40z
m6089 -201 c73 -113 123 -204 123 -224 0 -8 4 -14 9 -14 13 0 47 -110 44 -140
-1 -14 -5 -70 -8 -125 -3 -55 -7 -125 -9 -155 -4 -63 -17 -286 -21 -375 -5
-105 -6 -309 -1 -332 6 -28 -12 -39 -79 -47 -27 -4 -59 -9 -71 -12 -23 -6 -23
-3 -9 131 3 33 8 83 10 110 2 28 6 82 9 120 11 125 17 219 21 285 1 36 6 108
10 160 17 226 18 211 -40 435 -14 55 -28 111 -30 125 -3 14 -11 50 -19 80 -13
48 -13 70 -1 70 1 0 30 -42 62 -92z"/>
<path d="M8731 8887 c-178 -22 -305 -135 -361 -317 -39 -130 3 -297 102 -401
31 -33 101 -89 111 -89 3 0 22 -7 43 -17 47 -20 61 -23 144 -27 140 -8 272 55
363 176 16 20 40 39 55 43 15 3 37 14 50 25 23 19 55 83 46 92 -2 3 -7 16 -9
29 -2 13 -17 35 -32 49 -16 15 -29 38 -31 55 -25 240 -242 413 -481 382z m159
-68 c8 -4 36 -17 61 -28 73 -34 179 -155 179 -206 0 -8 3 -15 8 -15 4 0 8 -18
10 -39 2 -37 1 -39 -33 -45 -107 -20 -136 -136 -52 -208 l31 -27 -46 -43 c-67
-63 -75 -69 -132 -90 -139 -54 -307 -13 -405 98 -165 187 -109 467 115 577 27
14 56 27 64 30 23 8 183 5 200 -4z"/>
<path d="M8775 8552 c-49 -10 -98 -86 -89 -137 17 -92 126 -140 219 -95 56 27
78 77 66 150 -2 12 -48 58 -71 70 -25 14 -89 20 -125 12z m86 -41 c9 -1 28
-12 43 -26 28 -26 35 -77 13 -106 -27 -35 -101 -44 -149 -18 -24 13 -47 65
-41 90 10 37 63 69 103 63 8 -1 22 -3 31 -3z"/>
<path d="M3907 5874 c-2 -3 -18 -6 -34 -8 -110 -14 -212 -94 -250 -195 -38
-101 -8 -231 61 -266 17 -9 46 -25 64 -37 73 -45 210 -12 290 69 35 37 90 123
77 123 -3 0 -1 9 5 21 20 36 14 152 -11 195 -30 55 -38 63 -78 80 -35 15 -115
26 -124 18z m147 -120 c21 -44 21 -132 0 -186 -29 -75 -100 -135 -179 -153
l-30 -7 32 19 c74 42 123 111 139 193 11 56 1 155 -17 165 -20 13 -8 24 15 14
13 -6 31 -26 40 -45z"/>
<path d="M4480 5382 c-13 -3 -49 -19 -127 -55 -34 -15 -93 -77 -93 -96 0 -5
-4 -11 -8 -13 -5 -1 -84 -106 -175 -233 -91 -126 -170 -234 -174 -240 -4 -5
-21 -30 -38 -55 -16 -25 -33 -47 -36 -50 -3 -3 -48 -65 -100 -139 -52 -73
-106 -150 -120 -170 -388 -549 -390 -553 -284 -663 24 -24 118 -69 197 -93
104 -32 169 -5 231 95 12 19 25 40 29 45 24 30 118 167 118 171 0 5 12 20 38
49 6 7 12 16 12 19 0 11 140 196 148 196 11 0 2 -234 -12 -306 -23 -116 -24
-349 -3 -421 23 -75 33 -91 106 -164 170 -168 414 -311 446 -260 10 17 13 71
3 71 -5 0 -8 6 -7 13 1 6 0 19 -4 27 -17 46 -93 301 -102 345 -3 17 -9 44 -12
60 -8 39 -8 158 0 215 4 25 9 63 12 86 2 22 9 69 14 105 9 64 10 281 1 309 -4
12 10 16 70 22 99 9 123 14 200 45 298 119 492 409 416 621 -64 178 -321 392
-540 449 -58 15 -175 24 -206 15z m265 -102 c3 -5 1 -10 -4 -10 -6 0 -11 5
-11 10 0 6 2 10 4 10 3 0 8 -4 11 -10z m95 -45 c203 -115 358 -308 345 -431
-8 -75 -45 -168 -88 -221 -104 -127 -228 -211 -370 -254 -83 -25 -99 -19 -25
9 30 11 70 30 89 41 19 11 45 25 58 31 13 6 60 48 106 93 111 112 159 207 158
312 -1 97 -7 112 -68 200 -54 76 -131 149 -220 209 -81 54 -73 61 15 11z
m-339 -202 c-5 -10 -18 -27 -28 -38 -11 -11 -54 -74 -97 -140 -44 -66 -80
-122 -82 -124 -2 -2 -14 1 -26 7 -13 6 -17 11 -10 11 6 1 12 6 12 12 0 13 138
215 176 259 30 33 72 43 55 13z m169 -44 c61 -74 27 -166 -80 -219 -46 -23
-173 -37 -197 -22 -13 8 97 180 154 240 28 29 37 33 68 29 20 -3 43 -15 55
-28z m-223 -687 c26 -16 45 -114 44 -217 -2 -116 -7 -174 -27 -285 -17 -92
-21 -218 -10 -275 6 -28 16 -83 20 -112 1 -7 5 -16 9 -19 4 -4 7 -15 7 -25 0
-9 21 -81 46 -159 25 -78 43 -144 40 -147 -2 -3 -13 -2 -23 1 -12 4 -25 31
-42 88 -14 46 -35 117 -49 158 -58 185 -78 329 -61 448 5 35 11 83 14 105 3
23 8 60 11 82 4 22 7 92 8 155 0 99 -2 131 -14 185 -6 25 4 31 27 17z m-364
-49 c7 -6 -40 -75 -55 -81 -4 -2 -8 -8 -8 -12 0 -5 -21 -38 -47 -73 -27 -36
-55 -75 -63 -87 -22 -31 -88 -123 -100 -137 -6 -7 -10 -17 -10 -23 0 -5 -4
-10 -9 -10 -5 0 -12 -8 -16 -19 -3 -10 -17 -31 -30 -47 -14 -16 -25 -35 -25
-41 0 -7 -4 -13 -10 -13 -5 0 -10 -4 -10 -10 0 -31 -80 -90 -112 -83 -15 4
-13 9 12 29 16 14 78 96 136 182 91 133 126 184 181 257 5 6 24 33 43 60 75
108 101 131 123 108z"/>
<path d="M3545 5193 c-38 -8 -71 -19 -73 -24 -2 -5 -10 -9 -18 -9 -8 0 -14 -4
-14 -10 0 -5 -5 -10 -10 -10 -6 0 -27 -14 -48 -32 -57 -49 -281 -278 -332
-339 -25 -29 -52 -60 -60 -69 -35 -37 -164 -194 -249 -305 -51 -66 -99 -128
-107 -138 -52 -64 -105 -162 -106 -196 0 -73 50 -133 172 -205 97 -57 181 -86
254 -86 67 0 83 15 120 111 16 41 33 77 38 80 6 3 9 9 8 13 -4 17 246 490 281
533 7 7 8 13 4 13 -4 0 -2 7 5 15 6 8 19 29 29 47 24 47 120 225 146 273 48
89 87 200 91 257 3 52 0 59 -23 78 -14 11 -28 20 -32 19 -3 -1 -37 -8 -76 -16z
m75 -72 c0 -49 -74 -214 -190 -426 -18 -33 -42 -78 -53 -100 -12 -22 -27 -46
-34 -53 -7 -7 -13 -17 -13 -22 0 -4 -30 -61 -66 -126 -93 -165 -211 -401 -244
-487 -27 -68 -30 -72 -62 -75 -18 -1 -28 1 -23 5 6 4 11 15 13 23 10 44 179
389 250 510 11 19 37 67 58 105 20 39 40 75 44 80 4 6 22 37 40 70 18 33 45
83 60 110 97 177 161 324 164 378 1 13 38 37 47 31 5 -3 9 -13 9 -23z"/>
<path d="M5570 4702 c-8 -3 -26 -9 -40 -15 -14 -6 -32 -11 -40 -13 -20 -4 -33
-25 -108 -168 -35 -67 -88 -168 -119 -226 -31 -58 -80 -152 -111 -210 -30 -58
-78 -150 -107 -205 -29 -55 -74 -143 -100 -195 -27 -52 -54 -102 -61 -110 -7
-8 -13 -18 -13 -23 -1 -7 -5 -16 -120 -241 -39 -76 -71 -151 -71 -167 0 -40
40 -81 117 -122 111 -58 217 -92 353 -113 72 -11 311 -5 386 10 28 6 93 17
124 22 244 36 519 183 648 344 62 77 64 81 94 136 63 116 81 186 82 314 1 119
-16 194 -67 300 -116 243 -375 496 -637 623 -77 38 -184 68 -210 59z m546
-379 c240 -238 340 -470 301 -704 -25 -146 -172 -364 -300 -444 -18 -10 -34
-22 -37 -26 -6 -7 -46 -29 -55 -29 -3 0 24 23 61 52 37 28 81 67 98 86 17 20
36 40 41 46 42 43 131 213 140 267 3 18 9 38 14 44 4 5 6 57 5 115 -1 79 -7
123 -25 175 -12 39 -24 76 -25 84 -2 8 -6 17 -11 20 -4 3 -19 30 -33 58 -14
29 -28 53 -32 53 -5 0 -8 7 -8 15 0 8 -4 15 -9 15 -5 0 -11 6 -13 14 -7 30
-157 190 -275 294 -23 20 -13 16 23 -12 34 -25 97 -80 140 -123z m-466 -198
c0 -2 -22 -46 -49 -97 -27 -51 -72 -138 -101 -193 -28 -55 -56 -105 -61 -111
-5 -6 -6 -14 -2 -17 3 -4 1 -7 -5 -7 -7 0 -12 -8 -12 -18 0 -10 -4 -22 -9 -28
-15 -15 -162 -311 -165 -331 -4 -22 -30 -24 -34 -2 -2 12 93 211 177 369 4 8
13 24 18 35 51 102 192 368 210 398 5 8 33 10 33 2z m139 -92 c88 -96 127
-229 106 -354 -30 -171 -188 -306 -404 -346 -41 -7 -154 -11 -167 -6 -13 5 2
34 263 543 115 223 121 232 141 221 10 -5 37 -31 61 -58z m221 -922 c0 -5 -7
-12 -16 -15 -14 -5 -15 -4 -4 9 14 17 20 19 20 6z"/>
</g>
</svg>
