<?xml version="1.0" standalone="no"?>
<!DOCTYPE svg PUBLIC "-//W3C//DTD SVG 20010904//EN"
 "http://www.w3.org/TR/2001/REC-SVG-20010904/DTD/svg10.dtd">
<svg version="1.0" xmlns="http://www.w3.org/2000/svg"
 width="194.000000pt" height="194.000000pt" viewBox="0 0 194.000000 194.000000"
 preserveAspectRatio="xMidYMid meet">
<metadata>
Created by potrace 1.11, written by Peter Selinger 2001-2013
</metadata>
<g transform="translate(0.000000,194.000000) scale(0.100000,-0.100000)"
fill="#000000" stroke="none">
<path d="M0 970 l0 -970 970 0 970 0 0 970 0 970 -970 0 -970 0 0 -970z m1166
740 c183 -47 360 -179 460 -342 86 -141 128 -337 106 -493 -15 -102 -56 -221
-103 -302 -44 -74 -188 -218 -262 -262 -441 -259 -1007 -27 -1138 466 -28 102
-29 269 -4 368 39 158 134 311 253 410 193 160 444 217 688 155z"/>
<path d="M815 1555 c-205 -57 -377 -230 -429 -431 -20 -79 -21 -232 -1 -308
53 -201 222 -371 430 -432 72 -21 217 -23 295 -5 164 39 333 173 402 321 48
102 63 168 62 280 -3 219 -125 420 -320 522 -38 20 -97 43 -130 52 -75 19
-239 20 -309 1z m300 -281 l60 -24 32 32 c54 52 63 37 63 -97 l0 -115 -120 0
c-137 0 -146 7 -88 67 l31 33 -36 15 c-53 22 -106 19 -166 -11 -63 -32 -101
-84 -109 -149 l-5 -45 -55 0 -55 0 6 49 c8 66 41 132 90 182 97 96 214 118
352 63z m151 -361 c-26 -190 -215 -319 -392 -268 -33 9 -70 23 -83 32 -22 14
-25 13 -55 -16 -59 -57 -66 -47 -66 89 l0 120 115 0 c135 0 149 -9 96 -64 -17
-17 -31 -35 -31 -38 0 -3 14 -11 31 -17 92 -32 201 8 249 93 17 28 30 66 30
84 l0 32 56 0 57 0 -7 -47z"/>
</g>
</svg>
